<svg width="76" height="54" viewBox="0 0 76 54" fill="none" xmlns="http://www.w3.org/2000/svg">
<path d="M46.4378 1.68538C51.6408 3.29338 56.2182 6.45728 59.5462 10.7457C62.8741 15.0342 64.7906 20.2385 65.0344 25.6492C65.4133 32.4832 63.1511 39.2029 58.7104 44.4336C54.2697 49.6642 47.9862 53.0106 41.1453 53.7881C37.3395 54.2723 33.473 53.9108 29.8247 52.7298C26.1765 51.5488 22.8373 49.5776 20.0482 46.9585C17.1509 44.4106 14.8514 41.2617 13.312 37.7341C11.7725 34.2064 11.0305 30.3859 11.1384 26.5422C11.2978 20.9823 13.1851 15.6078 16.5411 11.1571C19.897 6.70635 24.5568 3.39761 29.8806 1.68538C35.3038 0.239107 41.0146 0.239107 46.4378 1.68538ZM38.1592 2.98855C34.9588 2.96946 31.7862 3.5796 28.8239 4.78384C25.8616 5.98807 23.168 7.76265 20.8982 10.0055C18.6284 12.2483 16.8271 14.9151 15.5979 17.8526C14.3688 20.79 13.736 23.94 13.7361 27.1213C13.723 33.548 16.2689 39.7187 20.8177 44.2856C25.3665 48.8525 31.5485 51.4445 38.0135 51.4955C44.4603 51.4705 50.6384 48.9252 55.2129 44.4096C59.7873 39.894 62.3909 33.7707 62.461 27.3627C62.4931 24.1712 61.888 21.0052 60.6808 18.0477C59.4736 15.0903 57.6883 12.4003 55.4281 10.1334C53.168 7.86654 50.4779 6.06781 47.5137 4.84139C44.5495 3.61497 41.37 2.9852 38.1592 2.98855Z" fill="#8C4F3D"/>
<path d="M10.8471 0.430551C11.3562 1.07399 11.607 1.88231 11.5511 2.69904C11.5511 6.43962 11.5511 10.1561 11.5511 13.8966C11.6202 15.6935 11.1829 17.4738 10.2887 19.0369C9.51553 20.4308 9.13791 22.0073 9.19619 23.598C9.19619 32.4548 9.19619 41.3115 9.19619 50.1441C9.24971 50.6413 9.19388 51.1441 9.03258 51.6178C8.87127 52.0915 8.60834 52.5246 8.26198 52.8873C7.91562 53.2499 7.49411 53.5334 7.02663 53.7181C6.55916 53.9029 6.05687 53.9844 5.55457 53.9571C4.64226 53.9194 3.78162 53.5259 3.15908 52.8619C2.53654 52.1979 2.20223 51.3168 2.22856 50.4095C2.22856 48.8168 2.22856 47.224 2.22856 45.583C2.22856 38.0536 2.22856 30.5241 2.22856 22.9706C2.25609 21.6511 1.92029 20.3493 1.25745 19.2059C0.425552 17.7944 -0.00257779 16.1839 0.0193043 14.5482C0.0193043 10.5181 0.0193043 6.46374 0.0193043 2.48183C-0.0628005 1.78223 0.118836 1.0772 0.529129 0.502946C0.990402 -0.148639 1.47596 -0.148639 1.93723 0.502946C2.43163 1.11676 2.68215 1.88963 2.64127 2.6749C2.64127 4.48486 2.64127 6.31894 2.64127 8.15303C2.64127 8.75635 2.64127 9.31142 3.4667 9.33555C4.29214 9.35969 4.51064 8.92529 4.51064 8.17717C4.51064 6.24655 4.51064 4.2918 4.51064 2.36118C4.47702 1.7001 4.66486 1.04659 5.04474 0.502946C5.77307 -0.221038 6.13723 0.0444232 6.45283 0.502946C6.97506 1.13948 7.22757 1.95307 7.15688 2.77143C7.15688 4.50899 7.15688 6.24655 7.15688 7.98411C7.15688 8.63569 7.15689 9.33555 8.12799 9.31142C9.09909 9.28728 8.9777 8.6357 9.00198 8.03238C9.00198 6.12589 9.00198 4.24353 9.00198 2.33704C8.96436 1.68302 9.15281 1.03586 9.53608 0.502946C10.0459 -0.317569 10.6771 0.0202933 10.8471 0.430551ZM4.77769 35.4955V49.4684C4.77769 50.2406 4.63203 51.2783 5.70024 51.3025C6.76845 51.3266 6.5985 50.2165 6.5985 49.4925C6.5985 40.499 6.5985 31.4894 6.5985 22.4638C6.54587 21.3009 6.82351 20.1468 7.39966 19.1335C8.59034 17.2917 9.14435 15.1143 8.97769 12.9313C8.97769 12.2315 8.73492 11.8454 7.95804 11.8695C6.47712 11.8695 4.99619 11.8695 3.49099 11.8695C2.9326 11.8695 2.66555 12.0143 2.64127 12.6659C2.38795 15.0013 2.92623 17.3539 4.17075 19.3507C4.62783 20.0715 4.85622 20.9124 4.82625 21.7639C4.80197 26.3974 4.82625 30.9585 4.82625 35.4955H4.77769Z" fill="#8C4F3D"/>
<path d="M75.9836 50.6025C76.0272 51.0194 75.9837 51.4407 75.8557 51.8401C75.7278 52.2394 75.5182 52.6082 75.2401 52.9231C74.9619 53.2381 74.6213 53.4926 74.2396 53.6705C73.8578 53.8484 73.4432 53.9459 73.0217 53.957C72.4978 54.0409 71.9614 54.0017 71.4555 53.8425C70.9496 53.6833 70.4882 53.4086 70.1082 53.0403C69.7283 52.672 69.4404 52.2204 69.2676 51.7217C69.0948 51.2229 69.0418 50.6909 69.113 50.1682C69.113 45.3416 69.113 40.3944 69.113 35.4954C69 33.7809 68.4576 32.1218 67.535 30.6689C67.0928 29.8018 66.8679 28.8415 66.8795 27.8695C66.8795 21.6191 66.8795 15.3446 66.8795 9.09416C66.7013 7.27242 67.1657 5.44577 68.1932 3.92693C69.2207 2.40808 70.7474 1.29149 72.5119 0.768337C72.6818 0.768337 75.2795 0.140885 75.7408 0.599408C75.8622 1.46819 75.9836 34.3612 75.9836 50.6025ZM73.5558 27.1937V10.3008C73.5558 8.37017 73.5558 6.41541 73.5558 4.48479C73.5558 3.35055 73.313 3.20574 72.2934 3.7608C71.4259 4.18073 70.7039 4.84807 70.2196 5.67764C69.7353 6.5072 69.5107 7.46138 69.5743 8.41843C69.5743 14.5482 69.5743 20.702 69.5743 26.8318C69.4866 28.226 69.8251 29.6141 70.5454 30.8137C71.4863 32.3483 71.9193 34.1377 71.7836 35.9298C71.7836 39.0188 71.7836 42.1319 71.7836 45.2451C71.7836 46.9102 71.7836 48.5754 71.7836 50.2647C71.7836 50.8921 72.0021 51.4713 72.7547 51.4472C73.5073 51.423 73.6044 50.868 73.6044 50.2647V27.3144L73.5558 27.1937Z" fill="#8C4F3D"/>
<path d="M38.1107 13.6552C41.7591 13.6414 45.268 15.048 47.8862 17.5738C50.5043 20.0997 52.0236 23.5441 52.1188 27.1696C51.9828 30.7756 50.463 34.193 47.8713 36.7198C45.2797 39.2466 41.8131 40.691 38.1835 40.7564C34.5854 40.7186 31.1457 39.2793 28.6036 36.7478C26.0614 34.2163 24.6197 30.7946 24.5881 27.2179C24.5753 25.4434 24.9154 23.6839 25.589 22.0405C26.2625 20.3972 27.2562 18.9023 28.5128 17.642C29.7695 16.3816 31.2643 15.3806 32.9115 14.6964C34.5586 14.0122 36.3255 13.6584 38.1107 13.6552Z" fill="#8C4F3D"/>
<path d="M38.135 9.23901C40.5371 9.24195 42.9147 9.71924 45.1298 10.6432C47.3448 11.5671 49.3532 12.9193 51.0381 14.6211C52.7231 16.323 54.0512 18.3407 54.9452 20.557C55.8392 22.7733 56.2813 25.1441 56.246 27.5317C56.1038 31.9047 54.3813 36.0804 51.3939 39.2937C48.4066 42.507 44.3545 44.5428 39.98 45.0279C35.234 45.4971 30.4922 44.0964 26.7741 41.127C23.056 38.1576 20.6584 33.8566 20.0968 29.1486C19.5434 24.6964 20.7535 20.2049 23.4714 16.6236C23.6143 16.3203 23.862 16.078 24.1694 15.9408C24.4767 15.8035 24.8234 15.7804 25.1465 15.8755C26.069 16.1651 26.2875 17.058 25.5592 18.0716C24.0605 20.1707 23.0868 22.5946 22.7188 25.1425C22.2099 29.2147 23.3444 33.3215 25.8741 36.5643C28.4038 39.8071 32.1227 41.9218 36.217 42.4457C39.5042 42.838 42.8314 42.1763 45.7137 40.557C48.596 38.9378 50.8826 36.4458 52.2402 33.4442C53.3075 31.1354 53.7806 28.5991 53.6168 26.0634C53.453 23.5277 52.6575 21.0723 51.3019 18.9182C49.9463 16.7641 48.0732 14.9788 45.851 13.7231C43.6288 12.4674 41.1274 11.7807 38.5719 11.7247C35.2226 11.6021 31.9242 12.5679 29.1766 14.4758C28.8994 14.6884 28.5872 14.8517 28.254 14.9585C27.9916 15.0532 27.7034 15.049 27.444 14.9467C27.1845 14.8444 26.9717 14.6511 26.8459 14.4034C26.6719 14.2162 26.5752 13.9706 26.5752 13.7156C26.5752 13.4607 26.6719 13.2151 26.8459 13.0279C27.2902 12.5901 27.7877 12.209 28.3269 11.8936C31.242 10.0232 34.6683 9.09586 38.135 9.23901Z" fill="#8C4F3D"/>
</svg>
