<svg width="63" height="64" viewBox="0 0 63 64" fill="none" xmlns="http://www.w3.org/2000/svg">
<path d="M3.77151 63.8569H1.48043C1.48043 49.541 1.48043 35.2251 1.48043 20.7373C1.48043 19.1912 1.48043 19.1053 3.31895 19.1053H59.9735C61.9252 19.1053 61.9252 19.1053 61.9252 21.1382V62.3108C61.9252 62.8262 61.9252 63.3416 61.9252 63.8569H59.4078C59.4078 60.7361 59.4078 57.5866 59.4078 54.437C59.4078 52.9196 59.125 52.6332 57.6259 52.6332H47.6413C45.9725 52.6332 45.7462 52.9195 45.718 54.6088V63.8855H17.8291C17.6028 60.8506 17.8291 57.787 17.8291 54.752C17.8291 53.0055 17.4897 52.6618 15.736 52.6332H5.92115C4.28063 52.6332 3.99778 52.9482 3.9695 54.5802L3.77151 63.8569ZM38.9579 24.5454C38.9579 22.6843 37.7982 21.6822 35.9031 22.2548C35.7184 22.3441 35.5175 22.3943 35.3129 22.402C35.1083 22.4097 34.9044 22.375 34.7136 22.2999C34.5227 22.2248 34.3491 22.1109 34.2035 21.9652C34.0578 21.8196 33.9432 21.6453 33.8666 21.4531C33.7128 21.0118 33.4275 20.6296 33.0501 20.3592C32.6727 20.0889 32.2217 19.9437 31.7594 19.9437C31.297 19.9437 30.8461 20.0889 30.4687 20.3592C30.0912 20.6296 29.806 21.0118 29.6521 21.4531C29.5837 21.6493 29.4762 21.8291 29.3362 21.9814C29.1962 22.1337 29.0268 22.2552 28.8385 22.3385C28.6502 22.4217 28.4469 22.4648 28.2414 22.4652C28.0359 22.4656 27.8326 22.4232 27.6439 22.3407C25.466 21.7395 24.1649 22.942 24.6457 25.2039C24.7381 25.4119 24.7878 25.6367 24.792 25.8647C24.7963 26.0926 24.7548 26.3191 24.6703 26.5305C24.5857 26.7418 24.4597 26.9337 24.3 27.0944C24.1402 27.2552 23.9499 27.3815 23.7406 27.4658C23.3363 27.6294 22.9898 27.9119 22.7456 28.2768C22.5015 28.6417 22.371 29.0723 22.371 29.513C22.371 29.9537 22.5015 30.3843 22.7456 30.7492C22.9898 31.1141 23.3363 31.3966 23.7406 31.5602C24.1423 31.7314 24.4619 32.0549 24.6311 32.4616C24.8002 32.8682 24.8055 33.3257 24.6457 33.7362C24.1649 36.0267 25.3529 37.172 27.4742 36.5994C27.6587 36.5111 27.8592 36.4627 28.0632 36.4572C28.2671 36.4516 28.47 36.4891 28.6589 36.5672C28.8477 36.6453 29.0185 36.7623 29.1603 36.9108C29.302 37.0592 29.4118 37.236 29.4824 37.4297C29.6483 37.8588 29.9381 38.2272 30.314 38.487C30.69 38.7467 31.1345 38.8856 31.5897 38.8856C32.0448 38.8856 32.4894 38.7467 32.8653 38.487C33.2412 38.2272 33.531 37.8588 33.6969 37.4297C33.7647 37.2335 33.8723 37.0537 34.0128 36.9021C34.1533 36.7505 34.3237 36.6304 34.5129 36.5495C34.702 36.4686 34.9059 36.4287 35.1112 36.4323C35.3165 36.436 35.5189 36.4831 35.7051 36.5707C37.9113 37.172 39.2973 35.8263 38.675 33.7076C38.3639 32.6768 38.675 32.2187 39.5236 31.6747C39.95 31.5133 40.3176 31.224 40.5772 30.8453C40.8367 30.4667 40.9757 30.0168 40.9757 29.5559C40.9757 29.0951 40.8367 28.6452 40.5772 28.2666C40.3176 27.8879 39.95 27.5985 39.5236 27.4372C38.6467 26.9218 38.3639 26.4064 38.7599 25.4616C38.8752 25.1693 38.9421 24.8597 38.9579 24.5454ZM49.5364 30.2717C51.3466 30.2717 51.4032 30.2717 51.4315 28.7256C51.4598 27.1795 51.4881 27.0077 49.6778 27.0077C47.8676 27.0077 47.7827 27.0077 47.7827 28.5252C47.7827 30.0427 47.8676 30.2431 49.5364 30.2431V30.2717ZM34.8566 42.0108C33.0463 42.0108 32.9615 42.0108 32.9615 43.5283C32.9615 45.0458 32.9615 45.2748 34.7151 45.2748C36.4688 45.2748 36.6102 45.2748 36.6102 43.5856C36.6102 41.8963 36.5254 42.0108 34.8566 42.0108ZM34.8566 54.3798C33.1029 54.3798 33.0181 54.3798 33.0181 55.9832C33.0181 57.5866 33.018 57.6152 34.8283 57.6152C36.6385 57.6152 36.6668 57.6152 36.6668 56.0118C36.6668 54.4084 36.5537 54.3798 34.8 54.3798H34.8566ZM49.6213 45.2748C51.3466 45.2748 51.4881 45.2748 51.4881 43.6715C51.4881 42.0681 51.4881 42.0108 49.7061 42.0108C47.9242 42.0108 47.8393 42.0108 47.8393 43.5856C47.8393 45.1603 47.8959 45.2748 49.5647 45.2748H49.6213ZM7.58996 27.0077C6.65656 26.8359 5.92115 27.0077 6.00601 28.4966C6.09086 29.9854 6.00601 30.2431 7.67482 30.2431C9.34362 30.2431 9.54162 30.2431 9.5699 28.6684C9.59819 27.0936 9.48504 27.0077 7.58996 27.0077ZM7.44854 42.0108C6.88284 42.0108 5.92115 41.8104 6.00601 43.3565C6.09086 44.9026 6.00601 45.2748 7.64653 45.2748C9.28705 45.2748 9.54162 45.2748 9.5699 43.7287C9.59819 42.1826 9.45676 42.0108 7.44854 42.0108ZM13.8409 27.0077C12.1438 27.0077 12.0307 27.0077 12.0024 28.4966C11.9741 29.9854 12.0024 30.2145 13.6146 30.2431C15.2269 30.2717 15.4532 30.2431 15.4532 28.7256C15.4532 27.2081 15.3683 27.0077 13.8409 27.0077ZM55.5045 30.2431C57.2016 30.2431 57.2865 30.2431 57.343 28.6111C57.3996 26.9791 56.9753 27.0077 55.7591 27.0077C53.9771 27.0077 53.864 27.0077 53.8357 28.5825C53.8074 30.1572 53.9771 30.2145 55.5045 30.2431ZM13.8126 42.0108C12.1155 42.0108 12.0307 42.0108 12.0024 43.5283C11.9741 45.0458 12.1438 45.2462 13.6429 45.2748C15.142 45.3035 15.4532 45.2748 15.4532 43.7001C15.4532 42.1253 15.3683 42.0108 13.8126 42.0108ZM28.6622 42.0108C27.7571 42.0108 26.9651 42.0108 27.0499 43.5283C27.1348 45.0458 27.1914 45.2748 28.8036 45.2748C30.4158 45.2748 30.529 45.1031 30.5573 43.6715C30.5856 42.2399 30.4158 42.0108 28.6622 42.0108ZM55.5328 45.2748C57.145 45.2748 57.3147 45.2748 57.343 43.7001C57.3713 42.1253 57.343 42.0108 55.7025 42.0108C54.062 42.0108 53.8357 42.0108 53.8357 43.6142C53.8357 45.2176 54.0054 45.2748 55.5328 45.2748ZM28.6622 54.3798C27.7853 54.3798 26.9651 54.3798 27.0499 55.8973C27.1348 57.4147 27.0499 57.6152 28.6622 57.6152C30.2744 57.6152 30.529 57.6152 30.5573 56.0404C30.5856 54.4657 30.4158 54.3798 28.6622 54.3798Z" fill="#8C4F3D"/>
<path d="M63 17.1011C62.406 17.1011 61.812 17.1011 61.2181 17.1011H0.77331C0.677308 17.1133 0.579831 17.1046 0.48741 17.0756C0.394989 17.0466 0.309762 16.998 0.237442 16.9329C0.165122 16.8678 0.10738 16.7878 0.0680877 16.6983C0.0287956 16.6088 0.00886112 16.5119 0.00962041 16.4139C-0.00818136 16.3058 -0.00121319 16.1949 0.0299889 16.09C0.061191 15.985 0.115793 15.8887 0.189584 15.8085C0.263374 15.7282 0.354381 15.6662 0.455588 15.6273C0.556795 15.5883 0.665496 15.5733 0.77331 15.5836C1.36729 15.5836 1.96127 15.5836 2.55526 15.5836H63V17.1011Z" fill="#8C4F3D"/>
<path d="M47.415 63.8569C47.415 61.3086 47.415 58.7317 47.415 56.1549C47.415 54.981 47.7262 54.4656 48.999 54.4656C51.8275 54.4656 51.8275 54.4656 51.8275 57.3288C51.8275 59.5621 51.8275 61.7953 51.8275 64L47.415 63.8569Z" fill="#8C4F3D"/>
<path d="M5.8363 63.8569V55.6396C5.8363 54.9238 6.09086 54.5229 6.85455 54.4943C10.277 54.4943 9.9376 54.2366 9.96589 57.3575C9.96589 59.5621 9.96589 61.7382 9.96589 63.9142L5.8363 63.8569Z" fill="#8C4F3D"/>
<path d="M11.6913 63.8569C11.6913 61.2227 11.6913 58.5599 11.6913 55.8972C11.6913 54.8378 12.1155 54.4942 13.1338 54.4656C15.9623 54.4656 15.9623 54.4656 15.9623 57.3288C15.9623 59.5621 15.9623 61.7953 15.9623 64L11.6913 63.8569Z" fill="#8C4F3D"/>
<path d="M53.5529 63.8569C53.5529 61.1655 53.5529 58.4454 53.5529 55.7541C53.5529 54.8951 53.8923 54.5229 54.7408 54.4942C57.739 54.3224 57.7673 54.2938 57.739 57.3574C57.739 59.5335 57.739 61.7381 57.739 63.9141L53.5529 63.8569Z" fill="#8C4F3D"/>
<path d="M4.11092 13.8084C3.7715 13.8084 3.43208 13.8084 3.09267 13.8084C2.75325 13.8084 2.35726 13.8084 2.15927 13.5507C1.96127 13.293 2.15927 12.8063 2.4704 12.4913C3.85847 10.6894 5.53091 9.13191 7.42025 7.88158C15.0929 2.29055 24.4274 -0.468366 33.8666 0.0650679C43.1371 0.529971 51.9753 4.17524 58.927 10.4012C59.7326 11.0996 60.4372 11.9092 61.02 12.8063C61.416 13.4075 61.3029 13.7797 60.5392 13.8084H4.11092ZM31.6887 8.54012C31.9124 8.55347 32.1364 8.51771 32.3453 8.43529C32.5541 8.35287 32.7429 8.22573 32.8987 8.06258C33.0545 7.89943 33.1736 7.70412 33.2479 7.49004C33.3222 7.27595 33.3499 7.04813 33.3292 6.82219C33.3431 6.60425 33.3095 6.38587 33.2308 6.18254C33.152 5.97921 33.03 5.79593 32.8735 5.64565C32.7169 5.49537 32.5296 5.3818 32.3249 5.31298C32.1201 5.24417 31.9029 5.22179 31.6887 5.24745C31.4654 5.22754 31.2404 5.25498 31.0282 5.32803C30.8159 5.40109 30.6211 5.51816 30.4561 5.67173C30.291 5.82531 30.1595 6.01203 30.0697 6.21998C29.98 6.42793 29.9341 6.65255 29.935 6.87947C29.9345 7.10753 29.9803 7.33325 30.0698 7.54257C30.1592 7.7519 30.2903 7.94033 30.4548 8.09613C30.6193 8.25193 30.8138 8.37177 31.0261 8.44815C31.2383 8.52454 31.4639 8.55585 31.6887 8.54012Z" fill="#8C4F3D"/>
<path d="M31.6886 31.3598C31.1753 31.3529 30.6841 31.1473 30.3158 30.7852C29.9476 30.4231 29.7304 29.932 29.7087 29.4128C29.7233 28.8886 29.9374 28.3903 30.3064 28.0221C30.6753 27.6539 31.1706 27.4444 31.6886 27.4372C31.9444 27.425 32.1999 27.4669 32.4388 27.5604C32.6776 27.6539 32.8945 27.7969 33.0756 27.9802C33.2567 28.1635 33.3979 28.3831 33.4903 28.6248C33.5827 28.8666 33.6241 29.1252 33.612 29.3842C33.6238 29.6444 33.5824 29.9042 33.4903 30.1474C33.3982 30.3906 33.2574 30.6119 33.0768 30.7974C32.8962 30.9829 32.6797 31.1287 32.4408 31.2254C32.2019 31.3222 31.9458 31.3679 31.6886 31.3598Z" fill="#8C4F3D"/>
</svg>
