<svg width="21" height="64" viewBox="0 0 21 64" fill="none" xmlns="http://www.w3.org/2000/svg">
<path d="M4.71027 6.79583C3.89306 4.79241 3.72962 4.01331 4.71027 2.92813C5.42362 1.99955 6.3376 1.25213 7.38073 0.744329C8.42385 0.236527 9.56785 -0.0178843 10.7232 0.00097719C11.8786 0.0198386 13.0141 0.311472 14.0408 0.853064C15.0675 1.39466 15.9576 2.17152 16.6415 3.1229C17.377 4.18026 17.2953 4.95938 16.6415 6.46194C16.3617 7.10564 16.1869 7.79178 16.124 8.49316C15.9614 11.5 16.3116 14.5129 17.1591 17.3972C18.8466 21.8023 20.1324 26.3572 21 31.0037V36.374C20.5097 40.2695 19.7742 44.165 19.638 48.0884C19.638 49.2014 19.1749 49.5631 18.167 49.2014L16.9957 48.8675C14.8061 47.9372 12.8844 46.4529 11.4114 44.5546C10.3135 43.1993 8.89146 42.1567 7.28311 41.5278C5.67476 40.8989 3.93464 40.7051 2.2314 40.9651C1.35971 40.9651 1.03282 40.7704 0.896621 39.9634C-0.157329 34.4316 0.314215 28.7094 2.25864 23.4353C3.69975 20.0037 4.68902 16.392 5.2006 12.6948C5.53185 10.7179 5.36307 8.68735 4.71027 6.79583ZM15.0071 28.3603C15.8243 28.3603 16.1785 27.9986 15.8788 27.1639C15.5792 26.3291 15.1433 24.91 14.7347 23.797C12.8726 19.2944 11.8828 14.4658 11.82 9.57834C11.82 8.57664 11.5748 8.10361 10.5125 8.10361C9.45009 8.10361 9.20493 8.71578 9.25941 9.63401C9.28911 13.0787 8.74565 16.5036 7.65223 19.7624C6.91674 22.0997 6.07229 24.4092 5.28232 26.7187C4.81923 28.1378 5.00991 28.3603 6.48089 28.3603H15.0071Z" fill="#8C4F3D"/>
<path d="M20.8093 56.742V60.5819C20.321 61.3974 19.6579 62.0891 18.8699 62.6049C18.0819 63.1206 17.1896 63.4469 16.2602 63.5592C13.1594 64.0458 10.0109 64.1299 6.88949 63.8096C5.5682 63.7577 4.26302 63.4948 3.02136 63.0305C2.45301 62.8319 1.92972 62.5182 1.48277 62.1083C1.03581 61.6984 0.674381 61.2006 0.420083 60.6447C0.165786 60.0888 0.0238494 59.4863 0.00275556 58.8731C-0.0183383 58.2599 0.0818467 57.6486 0.29732 57.0759C1.70818 52.9319 2.07356 48.4914 1.35969 44.165C1.11453 42.6346 1.35969 42.4399 2.88515 42.6903C4.57733 42.9427 6.14936 43.731 7.37981 44.9441C8.10215 45.6356 8.78432 46.3696 9.42283 47.1423C10.4957 48.5504 11.8927 49.6658 13.4896 50.3892C15.0865 51.1125 16.8336 51.4214 18.5756 51.2883C19.3656 51.2883 19.638 51.5387 19.7469 52.3456C19.9251 53.8497 20.2819 55.326 20.8093 56.742Z" fill="#8C4F3D"/>
</svg>
