<svg width="63" height="64" viewBox="0 0 63 64" fill="none" xmlns="http://www.w3.org/2000/svg">
<path d="M16.8841 0H18.019C18.4264 0.174305 18.8629 0.377662 19.2994 0.522916C25.9341 2.70173 32.5979 4.9096 39.2617 7.03031C39.808 7.1299 40.2947 7.43635 40.62 7.88566C40.9454 8.33497 41.0843 8.8924 41.0077 9.44152C41.0077 15.2517 41.0077 21.0619 41.0077 26.872C41.0077 27.3368 41.0077 27.8016 41.0077 28.2374H41.5024V26.7558C41.5024 23.4731 41.5024 20.2194 41.5024 16.9366C41.4569 16.499 41.5433 16.0578 41.7507 15.6696C41.9581 15.2814 42.277 14.9639 42.6664 14.7578C44.616 13.5667 46.4784 12.2304 48.4863 11.0393C49.0777 10.7356 49.7555 10.6433 50.4068 10.7779C54.1607 11.9399 57.8854 13.2181 61.6102 14.3802C62.0449 14.4779 62.4269 14.7354 62.6803 15.1014C62.9337 15.4673 63.0399 15.9151 62.9779 16.3556C62.9779 27.976 62.9779 39.5963 62.9779 51.2166C63.0148 51.4442 63.0054 51.6768 62.9502 51.9007C62.895 52.1246 62.7952 52.335 62.6566 52.5194C62.5181 52.7039 62.3437 52.8585 62.1439 52.9741C61.9441 53.0896 61.723 53.1638 61.4938 53.1921L18.2227 63.9409C17.6436 64.0645 17.0399 63.993 16.5058 63.7375C11.3552 60.8324 6.26278 58.1307 1.14126 55.3709C0.778011 55.2142 0.473135 54.9477 0.269548 54.609C0.0659612 54.2702 -0.0260813 53.8763 0.00637483 53.4826C0.00637483 40.0901 0.00637483 26.6977 0.00637483 13.2762C0.0394884 12.9317 0.14156 12.5974 0.306513 12.293C0.471466 11.9886 0.695947 11.7203 0.966666 11.5041C3.38193 9.67394 5.8845 7.95994 8.35796 6.15878L16.8841 0ZM39.6109 57.7531L40.8331 57.5497C43.4229 56.9106 46.0128 56.2134 48.6027 55.6323C49.5921 55.3999 49.7957 54.9061 49.7957 53.9765C49.7957 48.1663 49.7957 42.5885 49.7957 36.8946C49.8922 35.9956 49.6465 35.0932 49.1074 34.3667C48.5684 33.6401 47.7753 33.1426 46.8858 32.9727C45.7986 32.725 44.6811 32.6369 43.5684 32.7112C43.0047 32.6941 42.4439 32.7992 41.9248 33.0193C41.4056 33.2395 40.9405 33.5695 40.5615 33.9865C40.1825 34.4035 39.8987 34.8977 39.7295 35.4348C39.5604 35.972 39.51 36.5394 39.5818 37.0979C39.5818 43.4891 39.5818 49.89 39.5818 56.3005C39.5527 56.7944 39.5818 57.2592 39.6109 57.7531ZM19.7359 36.8074C21.0439 36.8958 22.3564 36.8958 23.6643 36.8074C23.9844 36.8074 24.3918 35.7035 24.3336 35.1806C24.3336 34.0766 25.1484 32.5079 23.6934 31.985C22.3822 31.7802 21.0471 31.7802 19.7359 31.985V36.8074ZM19.7359 23.0083C19.7359 24.6061 19.7359 25.9133 19.7359 27.2787C19.7919 27.4897 19.8977 27.6843 20.0445 27.846C20.1914 28.0078 20.3749 28.132 20.5798 28.2084C24.9738 28.4117 24.3627 29.5447 24.4209 24.8675C24.4209 24.6932 24.4209 24.4608 24.4209 24.3156C24.4209 24.1703 23.9553 23.5602 23.6934 23.5021C22.3839 23.3278 21.1327 23.2407 19.6486 23.0664L19.7359 23.0083ZM19.7359 54.1798L23.6643 53.5116C23.8971 53.5116 24.3045 53.2502 24.3045 53.1049C24.3045 51.6814 24.3045 50.1998 24.3045 48.8345C23.0532 48.8345 21.802 48.8345 20.5507 48.8345C20.2306 48.8345 19.7359 49.3283 19.7359 49.6188C19.6195 51.2166 19.6777 52.6111 19.6777 54.2379L19.7359 54.1798ZM19.7359 14.3511C19.7359 14.9902 19.7359 15.426 19.7359 15.8327C19.7359 16.7914 19.7359 17.7791 19.7359 18.7378C19.7359 18.9411 19.7359 19.3188 19.9396 19.3479L24.0135 20.0741C24.0135 18.8249 24.3627 17.5758 24.3918 16.3266C24.372 16.0778 24.2931 15.8373 24.1615 15.6251C24.0299 15.4129 23.8495 15.2351 23.6352 15.1064C22.384 14.845 21.1327 14.6707 19.7359 14.4092V14.3511ZM19.7359 5.63587C19.7359 7.32082 19.7359 8.77336 19.7359 10.1968C19.7437 10.3297 19.7818 10.4589 19.8474 10.5747C19.913 10.6906 20.0042 10.7899 20.1142 10.865C21.4819 11.2427 22.8495 11.5622 24.4209 11.9399C24.4209 10.284 24.4209 9.03481 24.4209 7.69847C24.3927 7.50868 24.32 7.32822 24.2087 7.17175C24.0975 7.01527 23.9509 6.88718 23.7807 6.79789C22.4713 6.42023 21.1327 6.12973 19.6777 5.69397L19.7359 5.63587ZM19.7359 45.4936C21.1909 45.4936 22.6459 45.2903 23.7807 45.1159C23.9243 45.077 24.0544 44.9995 24.157 44.892C24.2596 44.7845 24.3307 44.6509 24.3627 44.5059C24.3627 43.1405 24.3627 41.6008 24.3627 40.3226C22.9368 40.3226 21.6856 40.3226 20.4343 40.3226C20.2712 40.357 20.1204 40.4344 19.9976 40.5468C19.8747 40.6592 19.7844 40.8025 19.7359 40.9617C19.6486 42.5014 19.6777 43.9249 19.6777 45.5517L19.7359 45.4936ZM31.3757 21.3524C31.3757 19.8708 31.3757 18.6216 31.3757 17.4015C31.3423 17.2285 31.2699 17.0654 31.164 16.9245C31.0582 16.7836 30.9216 16.6685 30.7646 16.588C29.6879 16.2975 28.5531 16.1232 27.2145 15.8618C27.2145 17.4015 27.2145 18.7668 27.2145 19.9579C27.2572 20.1429 27.3426 20.3154 27.4638 20.4617C27.5851 20.6079 27.7388 20.7239 27.9129 20.8004C28.9605 21.0909 30.008 21.2071 31.3757 21.4105V21.3524ZM26.9526 42.4723C26.9526 42.7919 26.9526 43.1114 26.9526 43.431C26.778 44.6802 27.3891 44.9416 28.4949 44.7964C31.6085 44.3897 31.0847 44.9416 31.1429 41.8913C31.1858 41.4857 31.1858 41.0767 31.1429 40.6712C31.1429 40.3807 30.8519 39.9449 30.6773 39.9449C29.5761 39.8296 28.4631 39.9083 27.3891 40.1773C27.1854 40.3226 27.2145 41.688 26.9526 42.4723ZM31.2593 32.2174C30.0372 32.2174 29.0187 32.0431 28.0002 32.0721C27.7092 32.0721 27.1854 32.3917 27.1854 32.566C27.0178 33.8943 27.0868 35.2416 27.3891 36.546C27.3891 36.9236 29.2515 36.7784 30.299 36.8365C30.299 36.8365 30.5318 36.8365 30.59 36.8365C30.6482 36.8365 31.2593 36.4007 31.2884 36.1683C31.3757 34.8901 31.3466 33.5828 31.3466 32.2174H31.2593ZM31.2593 47.6143C29.9499 47.7596 28.9314 47.8467 27.9129 48.021C27.6219 48.021 27.1854 48.4277 27.1563 48.6601C27.1563 50.0255 27.1563 51.5652 27.1563 52.9597C28.4658 52.7563 29.5133 52.6111 30.5609 52.3787C30.7235 52.3244 30.8712 52.2332 30.9924 52.1122C31.1136 51.9912 31.205 51.8437 31.2593 51.6814C31.3757 50.4032 31.3466 49.0378 31.3466 47.6143H31.2593ZM31.2593 13.683C31.2593 12.1433 31.2593 10.7779 31.2593 9.64488C31.2432 9.49249 31.1896 9.34646 31.1033 9.21975C31.017 9.09304 30.9007 8.98958 30.7646 8.9186C29.6588 8.54094 28.4949 8.25044 27.1272 7.87278C27.1272 9.47058 27.1272 10.7779 27.1272 12.0561C27.1635 12.2283 27.2406 12.3894 27.352 12.5258C27.4633 12.6623 27.6058 12.7701 27.7674 12.8405C28.9023 13.16 30.008 13.3924 31.3466 13.683H31.2593ZM27.0981 26.4072C27.0253 26.9081 27.0253 27.4169 27.0981 27.9179C27.0981 28.2955 27.651 28.8184 27.9711 28.8475C31.7249 29.1089 31.1429 29.8643 31.2593 26.0876C31.2593 24.7513 30.881 24.3446 29.5716 24.2284C27.1854 24.025 27.1854 23.9379 27.1854 26.4072H27.0981ZM37.3993 22.1658C37.3993 21.0038 37.3993 19.7546 37.3993 18.5344C37.3805 18.4015 37.3278 18.2755 37.2463 18.1687C37.1648 18.0619 37.0572 17.9778 36.9337 17.9244C35.9444 17.6629 34.8968 17.4886 34.0238 17.2852C33.2381 21.4105 33.6455 22.0496 36.9337 22.3401C37.1242 22.3038 37.3098 22.2453 37.4866 22.1658H37.3993ZM37.2247 15.0483C38.0104 11.2136 37.2247 10.1678 33.8783 9.96444C32.8598 13.2762 33.5291 14.4673 36.7882 15.0774C36.9633 15.0805 37.1384 15.0708 37.312 15.0483H37.2247ZM37.3993 47.0042C33.9365 46.8299 33.6164 47.0042 33.6455 49.3864C33.6455 52.2915 33.209 51.9429 36.2063 51.42C36.6427 51.42 37.312 50.9842 37.3411 50.6937C37.5448 49.4736 37.4866 48.2244 37.4866 47.0042H37.3993ZM37.3993 39.8287C33.6746 39.3058 33.5873 39.3929 33.6164 42.7338C33.6164 42.9662 33.6164 43.2567 33.6164 43.431C33.6164 43.6053 34.1402 44.1863 34.4603 44.2154C37.0501 44.4768 37.3702 44.2154 37.3702 41.5136L37.3993 39.8287ZM33.6164 24.8094C33.6164 26.2039 33.6164 27.453 33.6164 28.6732C33.642 28.8189 33.7032 28.9562 33.7945 29.0727C33.8859 29.1892 34.0046 29.2815 34.1402 29.3413C35.0052 29.4861 35.8825 29.5445 36.7592 29.5156C36.8989 29.475 37.0245 29.3965 37.1221 29.2888C37.2198 29.1811 37.2855 29.0484 37.312 28.9056C37.378 27.9383 37.378 26.9677 37.312 26.0005C37.2699 25.8412 37.1896 25.6945 37.0781 25.5731C36.9666 25.4516 36.8271 25.359 36.6718 25.3033C35.857 24.9837 34.8968 24.9256 33.7328 24.8094H33.6164ZM37.6321 34.5124C37.6321 33.8733 37.6321 32.6822 37.1956 32.5369C36.2644 32.2174 34.664 31.8978 34.2857 32.3626C33.83 33.3625 33.6493 34.4655 33.7619 35.5582C33.7619 35.9359 34.0238 36.6622 34.2275 36.6912C35.2004 36.7963 36.1841 36.7374 37.1374 36.5169C37.5157 36.4878 37.4866 35.3258 37.6321 34.5124ZM13.1303 12.7243C13.8578 12.1723 15.0218 11.7656 15.1672 11.1265C15.3278 9.65893 15.3278 8.17829 15.1672 6.71075C12.6356 7.40797 11.7917 9.73203 13.1303 12.7824V12.7243ZM15.3128 31.6073C14.2943 32.1302 13.0139 31.1715 12.752 32.6822C12.5773 33.7792 12.5773 34.8969 12.752 35.994C12.752 36.3135 13.5959 36.6912 14.0615 36.7202C14.5271 36.7493 15.1964 36.3135 15.2255 36.023C15.3128 34.8029 15.3128 33.4085 15.3128 31.6073ZM15.3128 23.444C12.8102 23.5893 12.6938 23.7055 12.6938 25.8552C12.6356 26.4154 12.6356 26.98 12.6938 27.5402C12.6938 27.9178 13.2467 28.6151 13.3631 28.557C14.0324 28.3536 15.1091 28.0631 15.1964 27.6564C15.3467 26.2964 15.3856 24.9265 15.3128 23.5602V23.444ZM15.3128 15.0774C13.043 15.3388 12.752 15.6584 12.752 17.6339C12.7083 18.1947 12.7083 18.758 12.752 19.3188C12.8886 19.7454 13.0741 20.1549 13.3049 20.5389C13.9742 20.1613 15.1382 19.8417 15.2255 19.3479C15.393 17.9694 15.4222 16.5778 15.3128 15.1936V15.0774ZM15.3128 53.3664C15.3128 52.1172 15.3128 50.868 15.3128 49.6188C15.3128 48.3696 14.1779 48.2534 13.3922 48.1663C12.6065 48.0791 12.752 49.0378 12.6938 49.5898C12.6647 50.1026 12.6647 50.6166 12.6938 51.1295C12.6938 53.0759 13.1012 53.4826 15.3128 53.4826V53.3664ZM15.3128 44.9997C15.3128 43.7796 15.3128 42.6176 15.3128 41.4846C15.3128 40.3516 14.498 40.0611 13.5668 40.003C12.6356 39.9449 12.752 40.8455 12.6938 41.4846C12.6647 41.949 12.6647 42.4147 12.6938 42.879C12.6647 45.0869 12.7811 45.174 15.3128 45.1159V44.9997ZM10.4822 9.61583C8.29975 10.1968 8.18336 10.3421 8.24156 13.3343C8.36975 13.8468 8.57583 14.3367 8.85265 14.7869C9.40554 14.293 10.3076 13.8863 10.424 13.3343C10.5443 12.137 10.554 10.9312 10.4531 9.73204L10.4822 9.61583ZM10.4822 51.6524C10.4958 51.4783 10.4958 51.3035 10.4822 51.1295C10.4822 50.1417 10.4822 49.154 10.4822 48.2244C10.4822 47.2948 9.72563 47.0624 9.02724 46.9752C8.32885 46.8881 8.24155 47.6143 8.21245 48.1953C8.18335 48.6985 8.18335 49.2028 8.21245 49.706C8.21245 51.3909 8.53256 51.6814 10.3367 51.7686L10.4822 51.6524ZM10.4822 17.3143L10.0457 16.9076C9.43465 17.4305 8.53255 17.8372 8.29975 18.4763C8.10614 19.435 8.10614 20.4227 8.29975 21.3814C8.37818 21.5537 8.49967 21.703 8.65255 21.8149C8.80542 21.9268 8.98456 21.9976 9.17274 22.0205C9.98753 22.0205 10.6568 21.5848 10.5404 20.5099C10.424 19.435 10.4531 18.4763 10.4531 17.4305L10.4822 17.3143ZM10.4822 44.0701C10.4822 42.9952 10.4822 41.8913 10.4822 40.7874C10.4822 39.6834 10.0457 39.6253 9.23096 39.5963C8.41617 39.5672 8.18337 40.0901 8.18337 40.8164C8.18337 41.5427 8.18337 41.8332 8.18337 42.3561C8.21247 44.1573 8.44526 44.3606 10.4531 44.1863L10.4822 44.0701ZM10.4822 24.7223C8.29975 24.7223 8.24156 24.9547 8.24156 26.7268C8.16874 27.2861 8.16874 27.8524 8.24156 28.4117C8.24156 28.7603 8.85265 29.3413 9.05634 29.3123C9.26004 29.2832 10.3367 28.7894 10.3949 28.4117C10.4969 27.2234 10.5163 26.0295 10.4531 24.8385L10.4822 24.7223ZM10.4822 36.546C10.4822 36.3135 10.4822 36.1973 10.4822 36.0521C10.5469 35.0848 10.5469 34.1143 10.4822 33.147C10.4822 32.7403 10.0457 32.1012 9.72564 32.0721C9.40555 32.0431 8.18337 32.0721 8.27067 33.1761C8.27067 33.728 8.27067 34.28 8.27067 34.832C8.21247 36.8946 8.38707 37.0108 10.3658 36.6622L10.4822 36.546ZM51.3962 14.8159C50.9015 18.7087 50.9306 18.7087 53.7242 18.854C54.2771 15.7746 53.8406 15.0483 51.2798 14.9321L51.3962 14.8159ZM53.8115 38.6376C52.8221 38.841 51.5126 38.841 51.3962 39.2186C51.1202 40.2758 51.1202 41.3861 51.3962 42.4433C51.3962 42.6757 52.8803 42.4433 53.7824 42.6176L53.8115 38.6376ZM53.8115 27.0173C53.3459 27.0173 52.9676 26.843 52.6184 26.8139H51.4253C50.9306 31.0553 51.0761 30.852 53.8115 30.6196V27.0173ZM51.3671 20.7713C51.047 24.577 50.8142 24.7223 53.7533 24.6351C54.0443 20.7423 53.957 21.1781 51.2216 20.9747L51.3671 20.7713ZM51.3671 48.5439C54.2771 48.5439 54.7718 47.6434 53.8115 44.6511C51.3671 44.6511 51.3671 44.6511 51.3671 46.9461V48.5439ZM54.0443 34.7738C54.248 33.5247 54.0443 32.7112 52.502 32.7403C50.9597 32.7693 51.5126 33.9023 51.3671 34.6576C51.3525 34.8025 51.3525 34.9485 51.3671 35.0934C51.1925 36.2554 51.6581 36.5459 52.8221 36.575C54.1607 36.8365 53.7242 35.7906 53.7533 34.9772L54.0443 34.7738ZM57.6526 44.2154C55.121 44.2154 55.121 44.2154 55.121 46.3651C55.0916 46.548 55.0916 46.7343 55.121 46.9171C55.3538 47.2948 55.6739 47.9629 55.8485 47.9339C56.5178 47.9339 57.6236 48.1663 57.6526 46.9171C57.6817 45.6679 57.3616 45.3774 57.3616 44.4187L57.6526 44.2154ZM57.6526 19.6674C58.2055 16.4137 57.9436 15.9489 55.5575 15.8327C54.1607 18.7668 54.7136 19.7836 57.2162 19.987L57.6526 19.6674ZM57.8272 34.7738C57.8126 34.6387 57.8126 34.5023 57.8272 34.3671C57.9727 33.2923 57.5653 32.8855 56.4305 32.8565C55.2956 32.8274 55.2665 33.5828 55.2665 34.3962C55.1924 34.8093 55.1924 35.2323 55.2665 35.6454C55.3535 35.8466 55.4811 36.0279 55.6413 36.1778C55.8015 36.3278 55.9909 36.4432 56.1977 36.5169C57.2744 36.9236 57.3907 36.7784 57.3907 34.9772L57.8272 34.7738ZM57.8272 25.5357C57.9245 24.5698 57.9245 23.5965 57.8272 22.6306C57.8272 22.2529 57.0415 21.9334 56.5469 21.7591C56.1786 21.6895 55.7976 21.7512 55.4702 21.9334C55.304 22.8946 55.304 23.8772 55.4702 24.8385C55.2374 25.4195 56.4013 25.4485 57.3616 25.7971L57.8272 25.5357ZM54.9173 40.2645C55.2374 42.298 55.6157 42.6466 57.1579 42.1528C58.7002 41.6589 57.7108 40.7293 57.769 40.003C57.769 38.5505 57.4489 38.1728 56.0813 38.6667C55.1501 39.0443 54.8882 39.9158 54.5099 40.4678L54.9173 40.2645ZM57.8272 31.2296C57.9038 30.1173 57.9038 29.0011 57.8272 27.8888C57.8272 27.6273 57.0706 27.3368 56.6341 27.2787C56.1977 27.2206 55.4993 27.424 55.4993 27.5983C55.2868 28.555 55.2868 29.5466 55.4993 30.5034C55.1501 31.0263 56.2559 31.0844 57.3616 31.433L57.8272 31.2296ZM61.1446 20.5099C61.2786 19.624 61.2786 18.7231 61.1446 17.8372C61.1446 17.3433 60.1552 17.0528 59.5732 16.7914C59.4315 16.7874 59.2907 16.8139 59.1601 16.8691C59.0296 16.9242 58.9124 17.0067 58.8166 17.1109C57.4489 19.0283 58.4092 20.568 60.679 20.7132L61.1446 20.5099ZM58.7293 29.0508C58.5547 30.3872 58.7293 31.2296 60.097 31.2296C61.4647 31.2296 61.0282 30.1548 61.1446 29.4285C61.3483 28.2374 60.9118 27.5983 59.6023 27.5692C58.2928 27.5402 58.4092 28.8765 58.2637 29.2542L58.7293 29.0508ZM61.3483 45.4936C61.1446 43.7796 60.4171 43.1695 59.224 43.983C58.8166 44.2735 58.7293 45.2612 58.7002 45.9294C58.7002 47.44 59.3986 47.9339 60.6208 47.1205C60.5626 47.0624 60.6499 46.1327 60.8827 45.697L61.3483 45.4936ZM61.1446 24.1993C61.4356 22.863 60.8536 22.2239 59.5732 22.1948C58.2928 22.1658 58.7875 23.2407 58.6711 23.9088C58.4674 25.0999 58.8457 25.8552 60.2425 25.8552C61.6393 25.8552 60.4462 24.9547 60.679 24.4027L61.1446 24.1993ZM58.7002 40.4388C58.9039 40.8164 58.1182 41.9785 59.6605 41.9785C61.2028 41.9785 61.3192 41.3974 61.1446 40.2645C60.97 39.1315 61.6393 38.4052 60.0388 38.3762C58.4383 38.3471 58.1182 39.3639 58.2346 40.6421L58.7002 40.4388ZM61.1446 34.6286C61.1446 33.7861 61.3483 32.8855 59.8351 32.8855C58.3219 32.8855 58.7002 33.9023 58.6711 34.7157C58.642 35.5292 58.4383 36.4588 59.8933 36.4588C61.3483 36.4588 60.7081 35.9359 60.679 34.9482L61.1446 34.6286ZM6.58288 12.1432C4.57501 12.7533 4.5459 12.7824 4.6623 15.6003C4.75554 16.0462 4.93333 16.4702 5.1861 16.8495C5.65169 16.4137 6.4374 16.0651 6.52469 15.5712C6.64786 14.4327 6.66733 13.2853 6.58288 12.1432ZM6.58288 50.4032C6.67031 49.2428 6.67031 48.0775 6.58288 46.9171C6.58288 46.5685 5.7681 46.278 5.3316 45.9584C5.07919 46.2763 4.87342 46.6284 4.72051 47.0042C4.69141 47.5074 4.69141 48.0118 4.72051 48.5149C4.40042 49.8803 5.09881 50.3451 6.58288 50.4032ZM6.58288 25.7971C4.98241 25.7971 4.45862 26.3201 4.63322 27.5983C4.60383 28.1111 4.60383 28.6252 4.63322 29.138C4.63322 29.4866 5.2152 30.0676 5.3025 30.0386C5.3898 30.0095 6.43739 29.4866 6.49559 29.138C6.61243 28.0284 6.64162 26.9113 6.58288 25.7971ZM6.58288 43.7506V39.2767C5.94269 39.2767 4.9824 39.2767 4.9824 39.4801C4.82311 40.6172 4.82311 41.7709 4.9824 42.9081C4.7496 43.2276 5.7099 43.4891 6.58288 43.8087V43.7506ZM5.01151 23.415C6.81568 23.0664 7.19397 21.8753 6.46648 18.9992C4.45861 19.3479 3.99303 20.6551 4.86602 23.5021L5.01151 23.415ZM6.67018 36.546C6.72546 35.5784 6.72546 34.6084 6.67018 33.6409C6.67018 33.2923 6.2919 32.7112 6.0009 32.6531C5.70991 32.595 4.69142 32.6531 4.74962 33.699C4.74962 34.1928 4.74962 34.7158 4.74962 35.2096C4.60412 36.8655 4.66231 36.9236 6.58288 36.6331L6.67018 36.546ZM3.52742 20.3065C1.57775 20.7132 1.51956 20.7713 1.69416 23.3859C1.80231 23.7818 1.97963 24.1555 2.21795 24.4899C2.65444 24.1703 3.38193 23.8798 3.46923 23.4731C3.52432 22.446 3.49513 21.4161 3.38194 20.3937L3.52742 20.3065ZM3.52742 41.0779C3.60115 40.7234 3.60115 40.3575 3.52742 40.003C3.24423 39.6132 2.91168 39.2617 2.53805 38.9572C2.24705 39.2767 1.78146 39.5672 1.72326 39.9449C1.59193 40.675 1.59193 41.4226 1.72326 42.1528C1.72326 42.4433 2.33435 42.7338 2.74174 42.85C2.88126 42.8546 3.0195 42.8221 3.14225 42.7557C3.265 42.6894 3.36782 42.5915 3.44013 42.4723C3.48318 42.037 3.47343 41.598 3.41104 41.165L3.52742 41.0779ZM1.95606 18.3311C3.58564 18.0115 4.16763 15.9489 3.09094 14.1187C1.40317 14.8159 0.995775 16.2975 1.83966 18.4182L1.95606 18.3311ZM3.49834 26.6396L2.82904 26.3201C2.36624 26.7433 1.98204 27.2449 1.69416 27.8016C1.54858 28.4325 1.54858 29.0881 1.69416 29.719C1.69416 30.0386 2.21796 30.5615 2.36346 30.5034C2.50895 30.4453 3.41103 30.0967 3.46923 29.8062C3.50925 28.7789 3.48009 27.7501 3.38194 26.7268L3.49834 26.6396ZM3.49834 34.7157C3.49834 34.4252 3.49834 34.1057 3.49834 33.9023C3.49834 33.699 3.00364 32.9146 2.65445 32.8274C2.30525 32.7403 1.60687 33.2051 1.63597 33.9314C1.57779 34.5789 1.57779 35.2303 1.63597 35.8778C1.63597 36.1973 2.21794 36.6622 2.47983 36.6331C2.68318 36.5612 2.8702 36.4497 3.03005 36.3051C3.1899 36.1605 3.31941 35.9856 3.41104 35.7906C3.49834 35.6163 3.38194 35.1806 3.38194 34.8029L3.49834 34.7157ZM3.00363 49.2412L3.46923 49.0088C3.52766 47.925 3.52766 46.8388 3.46923 45.7551C3.46923 45.4646 2.91635 45.2031 2.56715 45.0578C2.44502 45.0357 2.31955 45.0397 2.19912 45.0698C2.07869 45.0998 1.96605 45.1552 1.86875 45.2321C1.74702 46.1967 1.74702 47.1727 1.86875 48.1372C1.69415 48.7763 2.45076 49.0378 2.88725 49.3864L3.00363 49.2412Z" fill="#8C4F3D"/>
</svg>
