<svg width="153" height="48" viewBox="0 0 153 48" fill="none" xmlns="http://www.w3.org/2000/svg">
<g clip-path="url(#clip0_600_149)">
<path d="M107.181 3.68477C107.181 3.68477 104.313 4.82668 100.977 8.50368C97.6411 12.1807 95.6984 16.3154 97.1362 17.4151C97.6884 17.833 98.962 17.9126 101.273 15.8228C103.405 13.971 105.08 11.6495 106.163 9.04105C107.656 5.40137 107.181 3.72955 107.181 3.68975M125.436 10.2999C121.73 8.39919 119.021 6.07059 116.203 4.63015C113.514 3.24941 111.775 2.67223 109.601 2.96331C109.298 3.01737 108.998 3.09219 108.705 3.18721C108.705 3.18721 109.825 7.01099 105.37 13.4345C100.857 19.9477 96.763 19.9029 95.5989 18.1141C94.38 16.2259 95.9546 12.3772 98.5839 8.95149C101.338 5.36903 106.173 2.39857 106.173 2.39857C106.173 2.39857 104.631 1.45569 100.845 3.60268C97.1511 5.68747 90.7931 10.6631 84.8928 19.0545C78.9925 27.4459 77.8234 32.0633 76.9776 35.698C76.1319 39.3328 76.9005 43.2262 80.9302 43.2262C84.9599 43.2262 89.6513 37.0788 90.9747 34.9417C93.4348 30.9612 95.0392 24.8561 91.6911 25.6945C90.0419 26.1075 88.7061 27.9336 87.8628 29.6924C87.3305 30.8222 86.9234 32.0068 86.6489 33.2252C85.479 33.7074 84.3802 34.3469 83.3829 35.1258C82.2734 35.9478 81.2365 36.8633 80.2835 37.8624C80.2835 37.8624 80.2984 34.9567 82.6142 30.2547C84.9301 25.5527 89.1812 23.4057 91.5891 23.2042C93.7582 23.0301 96.5815 24.871 94.1885 31.6628C91.7955 38.4545 84.7361 46.7116 77.3209 46.8136C70.4778 46.9082 66.0004 38.1734 75.5249 22.9305C86.0669 6.09049 98.4321 0.923294 102.447 0.348608C106.462 -0.226079 107.768 1.54525 107.768 1.54525C110.184 0.553617 112.795 0.123205 115.402 0.286412C120.305 0.617292 124.095 4.0878 129.1 6.52586C127.799 7.76977 126.558 9.07588 125.439 10.2999M147.463 4.63015C144.065 6.80948 139.364 8.78481 134.846 8.36188C133.702 9.54359 132.478 10.9119 131.252 12.4046C139.085 13.9545 145.948 9.10076 149.597 4.96849C150.927 3.48279 152.07 1.8393 153 0.0749473C151.339 1.80559 149.479 3.33452 147.46 4.63015M137.03 26.7021C137.09 26.5988 137.138 26.4896 137.175 26.3762C137.151 26.1968 137.067 26.0308 136.937 25.9058C136.806 25.7809 136.636 25.7045 136.456 25.6895C135.71 25.6547 134.692 25.7965 132.023 28.752C129.809 31.1928 127.903 33.8966 126.349 36.8026C124.822 39.594 124.202 41.6738 125.081 42.2112C125.366 42.3589 125.697 42.3927 126.006 42.3057C126.6 42.1639 127.274 41.6066 128.299 40.4199C128.779 39.8627 129.312 39.074 129.949 38.2008C131.715 35.7976 136.152 28.2321 137.03 26.7021ZM109.305 29.9163C109.75 28.752 110.317 26.4657 109.138 25.5676C107.872 24.6148 104.643 26.8514 104.626 29.1451C104.604 31.4936 106.9 32.5559 107.449 32.7052C107.763 32.7898 107.872 32.7773 108.024 32.5261C108.511 31.6869 108.939 30.8149 109.305 29.9163ZM106.862 34.1879C106.062 33.8184 105.316 33.3422 104.643 32.7724C103.969 32.2068 103.406 31.5209 102.982 30.7498C102.937 30.6751 102.892 30.7324 102.842 30.7995C102.793 30.8667 102.594 31.0483 100.872 33.571C99.151 36.0936 96.5068 41.3205 98.8998 42.2112C100.432 42.7809 102.982 40.0965 104.372 38.3177C105.32 37.0761 106.178 35.7693 106.942 34.4069C107.014 34.2551 106.942 34.2203 106.865 34.1879M134.008 40.2259C133.359 41.2658 132.618 43.261 134.754 42.0196C137.369 40.5095 141.092 34.8596 141.092 34.8596H142.781C141.245 37.223 139.533 39.4683 137.662 41.5768C135.013 44.5124 131.782 47.1793 129.506 46.9156C126.847 46.6046 127.68 43.1142 127.68 43.1142C127.68 43.1142 123.877 47.1644 121.245 46.8733C117.69 46.4803 118.775 42.0868 118.775 42.0868C118.775 42.0868 114.755 47.0201 112.016 46.8684C107.723 46.6196 108.802 41.3952 109.996 37.7157C110.636 35.7478 111.228 34.2029 111.228 34.2029C111.228 34.2029 110.802 34.3148 109.887 34.4516C109.409 34.5188 108.539 34.5686 108.539 34.5686C108.539 34.5686 106.75 37.7231 105.32 39.6189C103.89 41.5146 97.8103 48.0501 94.2333 46.7415C90.9249 45.5324 92.0194 40.4672 93.9447 36.4419C96.7556 30.5731 104.661 22.1419 109.22 23.2565C113.947 24.4033 109.327 33.0286 109.327 33.0286C109.327 33.0286 109.327 33.061 109.377 33.0833C109.472 33.1182 109.718 33.1455 110.287 33.0336C110.878 32.9132 111.456 32.7408 112.016 32.5186C112.016 32.5186 116.767 22.5673 122.016 16.0567C127.265 9.54608 137.734 -1.66653 141.844 1.0452C142.839 1.71193 142.391 4.00819 141.038 6.79455C140.428 6.99255 139.809 7.15863 139.182 7.29211C140.088 5.64766 140.687 4.26195 140.866 3.29419C141.485 -0.0693464 133.632 7.02592 128.021 14.6486C124.641 19.244 121.637 24.1053 119.041 29.1849C120.055 28.5666 121.022 27.8756 121.936 27.1176C124.439 25.0418 126.818 22.8204 129.061 20.4651C131.22 18.2544 133.245 15.9167 135.125 13.4644C135.722 13.4355 136.318 13.374 136.909 13.2803C134.858 16.0632 132.623 18.7047 130.217 21.1866C127.978 23.4505 125.556 25.8861 123.451 27.6549C121.572 29.2536 119.589 30.7271 117.516 32.0658C117.516 32.0658 112.608 41.9649 115.277 42.5993C116.847 42.9774 119.946 38.2033 119.946 38.2033C119.946 38.2033 123.991 32.031 126.429 29.2471C129.755 25.4656 132.618 23.2764 135.478 23.2366C137.145 23.2067 138.127 24.978 138.127 24.978L138.911 23.764H143.737C143.737 23.764 134.725 39.0591 134.003 40.211M147.46 4.63015C144.062 6.80948 139.361 8.78481 134.844 8.36188C133.7 9.54359 132.476 10.9119 131.249 12.4046C139.083 13.9545 145.946 9.10076 149.595 4.96849C150.926 3.48293 152.07 1.83944 153 0.0749473C151.339 1.80559 149.479 3.33452 147.46 4.63015ZM79.689 12.1334H75.0996L72.5051 16.3254H77.0945L79.689 12.1334ZM57.9583 26.6498C59.911 23.9729 65.2989 14.5914 65.2989 14.5914C65.2762 14.4122 65.1926 14.2462 65.0622 14.1212C64.9318 13.9963 64.7625 13.9198 64.5825 13.9047C63.8363 13.8699 62.5925 14.1212 60.1224 17.2135C57.6524 20.3059 55.7345 22.7664 54.3366 25.3263C52.8043 28.1201 52.1351 30.0905 53.0157 30.6254C53.3015 30.7686 53.6297 30.8022 53.9386 30.7199C54.5107 30.5756 55.2594 30.0009 56.2867 28.8192C56.7693 28.2669 57.3166 27.5231 57.9583 26.6498ZM33.3323 13.962C32.0637 13.0041 28.8374 15.2457 28.82 17.5345C28.8001 19.8855 31.7229 20.6044 32.101 20.6219C32.2122 20.6311 32.3237 20.6078 32.4219 20.5547C32.4893 20.5153 32.5431 20.4563 32.5761 20.3855C32.9197 19.7101 33.2286 19.0176 33.5014 18.3107C33.9467 17.1464 34.5113 14.8601 33.3323 13.962ZM31.4194 22.0548C30.5446 21.7815 29.7086 21.3969 28.9319 20.9104C28.1792 20.4197 27.5672 19.7415 27.1559 18.9426C27.1111 18.8679 27.0613 18.9252 27.0166 18.9923C26.9718 19.0595 26.7131 19.3829 24.9868 21.9155C23.2605 24.4481 20.7033 29.6278 23.0988 30.5184C24.6261 31.0981 27.2056 28.3913 28.6061 26.62C29.6541 25.228 30.6224 23.7778 31.5065 22.2763C31.5637 22.1245 31.5065 22.0897 31.4219 22.0623M68.9033 23.6147H70.5848C70.5848 23.6147 62.1597 35.805 57.4011 35.2378C54.7445 34.9268 55.533 31.6479 55.533 31.6479C55.533 31.6479 51.8018 36.0165 48.3741 35.1308C45.2647 34.3322 47.2721 29.1601 47.2721 29.1601C46.9189 29.3019 40.1903 36.8872 35.4616 35.0686C30.514 33.158 33.0835 26.8066 34.0238 24.8959C34.8223 23.2863 35.7053 21.719 35.7053 21.719C35.7053 21.719 34.9466 21.9329 34.4616 22.0424C33.9765 22.1519 33.2751 22.2912 33.2751 22.2912C33.2751 22.2912 30.9343 26.0951 29.504 27.9933C28.0737 29.8915 21.9943 36.4145 18.4124 35.1159C14.8304 33.8172 15.7184 28.8043 17.7308 24.8238C20.9944 18.3679 28.7379 10.4342 33.4019 11.6383C38.1132 12.84 34.2128 20.4825 34.2128 20.4825C34.2128 20.4825 35.1506 20.6044 37.3968 19.0719C40.6305 16.8652 44.8991 10.9293 49.5208 11.6259C51.6998 11.9543 53.7296 14.1809 50.9536 18.4102C50.068 19.7685 48.583 20.9826 47.4462 19.781C46.7373 19.0346 47.3567 17.6738 48.1004 16.7433C48.3899 16.3641 48.7682 16.0618 49.202 15.8631C49.6357 15.6644 50.1117 15.5754 50.5879 15.6039C50.5879 15.6039 51.3516 13.8624 49.4089 13.8873C47.8368 13.9172 43.8568 17.5817 41.6106 21.2836C39.551 24.682 36.4292 30.4711 39.5634 31.7325C42.4365 32.8918 47.9039 26.4011 50.4362 23.0002C52.9684 19.5994 58.7394 11.8921 63.58 11.5836C65.2467 11.4741 66.2392 12.9942 66.2392 12.9942L66.7988 12.1085H71.6395C71.6395 12.1085 62.5229 27.324 61.8114 28.4759C61.2518 29.3765 60.508 31.4016 62.5577 30.2671C64.6074 29.1327 68.9033 23.6147 68.9033 23.6147ZM66.269 47.9953C62.7048 45.5278 58.437 44.2822 54.1052 44.4452C52.9328 44.4772 51.7844 44.7851 50.7532 45.344C49.722 45.9029 48.837 46.697 48.1701 47.662C46.3244 44.4402 42.6753 42.4624 37.0336 42.5072C27.917 42.6117 18.875 46.8161 11.7111 46.8111C4.84564 46.8111 -0.161665 42.4948 2.17517e-05 34.8298C0.301007 21.3782 11.6663 9.26495 20.1486 3.81414C25.039 0.681975 29.1284 -0.248469 31.8025 0.052557C33.7527 0.268997 36.0984 2.52296 34.6183 5.8442C32.4442 10.6979 29.4418 10.2999 29.5538 7.97875C29.616 6.46865 30.6209 5.5183 31.3771 4.99337C31.8572 4.66249 32.7054 4.56795 33.1482 4.558C33.5785 4.19478 33.8944 1.53779 30.412 2.41101C26.9295 3.28424 22.7008 6.71743 18.686 11.1532C14.6712 15.589 8.42015 23.9729 6.87542 32.7773C6.15405 36.8599 6.62667 44.3059 16.3055 44.2213C24.5141 44.1541 36.6133 38.7481 47.7323 38.8601C52.0481 38.9024 55.8042 40.0667 58.7319 41.8728C61.6075 43.6441 65.0551 46.2315 66.279 47.9978" fill="#E61D2B"/>
</g>
<defs>
<clipPath id="clip0_600_149">
<rect width="153" height="48" fill="white"/>
</clipPath>
</defs>
</svg>
