<svg width="52" height="52" viewBox="0 0 52 52" fill="none" xmlns="http://www.w3.org/2000/svg">
<circle cx="26" cy="26" r="25.5" stroke="url(#paint0_linear_571_1245)"/>
<path d="M28.8959 15.833C27.462 15.833 26.0869 16.4026 25.073 17.4165C24.0591 18.4304 23.4895 19.8055 23.4895 21.2394V24.2494H20.5963C20.4514 24.2494 20.3333 24.3663 20.3333 24.5125V28.4869C20.3333 28.6318 20.4502 28.7499 20.5963 28.7499H23.4895V36.9033C23.4895 37.0483 23.6064 37.1663 23.7525 37.1663H27.7269C27.8719 37.1663 27.9899 37.0494 27.9899 36.9033V28.7499H30.9088C31.0292 28.7499 31.1344 28.6681 31.1636 28.5512L32.1572 24.5768C32.167 24.538 32.1678 24.4975 32.1596 24.4583C32.1514 24.4192 32.1343 24.3824 32.1097 24.3509C32.0852 24.3193 32.0537 24.2938 32.0178 24.2762C31.9819 24.2586 31.9424 24.2495 31.9024 24.2494H27.9899V21.2394C27.9899 21.1204 28.0134 21.0026 28.0589 20.8927C28.1044 20.7828 28.1712 20.6829 28.2553 20.5988C28.3394 20.5147 28.4393 20.448 28.5492 20.4024C28.6591 20.3569 28.7769 20.3335 28.8959 20.3335H31.9351C32.0801 20.3335 32.1982 20.2166 32.1982 20.0705V16.096C32.1982 15.9511 32.0813 15.833 31.9351 15.833H28.8959Z" fill="url(#paint1_linear_571_1245)"/>
<defs>
<linearGradient id="paint0_linear_571_1245" x1="0.824819" y1="25.9144" x2="67.0713" y2="25.9557" gradientUnits="userSpaceOnUse">
<stop stop-color="#E8B9AF"/>
<stop offset="0.67" stop-color="#8C4F3D"/>
<stop offset="1" stop-color="#631F1F"/>
</linearGradient>
<linearGradient id="paint1_linear_571_1245" x1="20.5215" y1="26.4646" x2="35.637" y2="26.4698" gradientUnits="userSpaceOnUse">
<stop stop-color="#E8B9AF"/>
<stop offset="0.67" stop-color="#8C4F3D"/>
<stop offset="1" stop-color="#631F1F"/>
</linearGradient>
</defs>
</svg>
