<svg width="52" height="52" viewBox="0 0 52 52" fill="none" xmlns="http://www.w3.org/2000/svg">
<circle cx="26" cy="26" r="25.5" stroke="url(#paint0_linear_571_1249)"/>
<path d="M25.9974 20.5266C22.9687 20.5266 20.5243 22.971 20.5243 25.9997C20.5243 29.0284 22.9687 31.4727 25.9974 31.4727C29.0261 31.4727 31.4704 29.0284 31.4704 25.9997C31.4704 22.971 29.0261 20.5266 25.9974 20.5266ZM25.9974 29.5567C24.0387 29.5567 22.4403 27.9583 22.4403 25.9997C22.4403 24.041 24.0387 22.4426 25.9974 22.4426C27.956 22.4426 29.5544 24.041 29.5544 25.9997C29.5544 27.9583 27.956 29.5567 25.9974 29.5567ZM31.6946 19.027C30.9874 19.027 30.4164 19.598 30.4164 20.3052C30.4164 21.0123 30.9874 21.5834 31.6946 21.5834C32.4017 21.5834 32.9728 21.015 32.9728 20.3052C32.973 20.1372 32.94 19.9709 32.8759 19.8158C32.8117 19.6606 32.7176 19.5196 32.5988 19.4009C32.4801 19.2821 32.3391 19.188 32.184 19.1238C32.0288 19.0597 31.8625 19.0268 31.6946 19.027ZM36.6659 25.9997C36.6659 24.5267 36.6793 23.067 36.5965 21.5967C36.5138 19.8889 36.1242 18.3732 34.8754 17.1243C33.6239 15.8728 32.1108 15.4859 30.403 15.4032C28.93 15.3205 27.4704 15.3338 26 15.3338C24.527 15.3338 23.0674 15.3205 21.5971 15.4032C19.8892 15.4859 18.3736 15.8755 17.1247 17.1243C15.8732 18.3759 15.4863 19.8889 15.4035 21.5967C15.3208 23.0697 15.3342 24.5293 15.3342 25.9997C15.3342 27.47 15.3208 28.9323 15.4035 30.4026C15.4863 32.1105 15.8759 33.6262 17.1247 34.875C18.3762 36.1265 19.8892 36.5134 21.5971 36.5962C23.0701 36.6789 24.5297 36.6655 26 36.6655C27.473 36.6655 28.9327 36.6789 30.403 36.5962C32.1108 36.5134 33.6265 36.1238 34.8754 34.875C36.1269 33.6235 36.5138 32.1105 36.5965 30.4026C36.6819 28.9323 36.6659 27.4727 36.6659 25.9997ZM34.3177 32.2919C34.1229 32.7776 33.888 33.1405 33.5118 33.5141C33.1355 33.8903 32.7753 34.1252 32.2896 34.32C30.886 34.8777 27.5531 34.7523 25.9974 34.7523C24.4417 34.7523 21.1061 34.8777 19.7025 34.3226C19.2168 34.1278 18.8539 33.893 18.4803 33.5168C18.104 33.1405 17.8692 32.7803 17.6744 32.2946C17.1194 30.8883 17.2448 27.5554 17.2448 25.9997C17.2448 24.444 17.1194 21.1084 17.6744 19.7048C17.8692 19.2191 18.104 18.8562 18.4803 18.4826C18.8565 18.109 19.2168 17.8715 19.7025 17.6767C21.1061 17.1217 24.4417 17.2471 25.9974 17.2471C27.5531 17.2471 30.8887 17.1217 32.2923 17.6767C32.778 17.8715 33.1409 18.1063 33.5145 18.4826C33.8907 18.8589 34.1255 19.2191 34.3203 19.7048C34.8754 21.1084 34.75 24.444 34.75 25.9997C34.75 27.5554 34.8754 30.8883 34.3177 32.2919Z" fill="url(#paint1_linear_571_1249)"/>
<defs>
<linearGradient id="paint0_linear_571_1249" x1="0.824819" y1="25.9144" x2="67.0713" y2="25.9557" gradientUnits="userSpaceOnUse">
<stop stop-color="#E8B9AF"/>
<stop offset="0.67" stop-color="#8C4F3D"/>
<stop offset="1" stop-color="#631F1F"/>
</linearGradient>
<linearGradient id="paint1_linear_571_1249" x1="15.6718" y1="25.9646" x2="42.8503" y2="25.9815" gradientUnits="userSpaceOnUse">
<stop stop-color="#E8B9AF"/>
<stop offset="0.67" stop-color="#8C4F3D"/>
<stop offset="1" stop-color="#631F1F"/>
</linearGradient>
</defs>
</svg>
