<svg width="70" height="70" viewBox="0 0 70 70" fill="none" xmlns="http://www.w3.org/2000/svg">
<rect x="0.5" y="0.5" width="69" height="69" rx="34.5" stroke="url(#paint0_linear_539_90)"/>
<path d="M26.833 27H31.323L32.77 30.618L30.445 32.168C30.3081 32.2593 30.1958 32.3831 30.1182 32.5282C30.0406 32.6734 30 32.8354 30 33C30.003 33.094 30 33.001 30 33.001V33.022C30.0005 33.0667 30.0025 33.1114 30.006 33.156C30.0113 33.2387 30.023 33.3487 30.041 33.486C30.08 33.756 30.155 34.128 30.301 34.566C30.595 35.446 31.171 36.585 32.293 37.707C33.415 38.829 34.554 39.405 35.433 39.699C35.872 39.845 36.243 39.919 36.515 39.959C36.6684 39.9813 36.823 39.9947 36.978 39.999L36.991 40H36.999C36.999 40 37.111 39.994 37 40C37.1857 39.9999 37.3676 39.9481 37.5255 39.8504C37.6834 39.7528 37.811 39.6131 37.894 39.447L38.564 38.107L43 38.847V43.167C40.889 43.472 35.187 43.773 30.707 39.293C26.227 34.813 26.527 29.11 26.833 27ZM32.073 33.486L33.88 32.282C34.2618 32.0274 34.5443 31.6492 34.6803 31.211C34.8163 30.7727 34.7975 30.301 34.627 29.875L33.18 26.257C33.0315 25.8859 32.7752 25.5678 32.4443 25.3438C32.1133 25.1197 31.7227 25 31.323 25H26.781C25.872 25 25.017 25.631 24.868 26.617C24.528 28.859 24.067 35.481 29.293 40.707C34.519 45.933 41.141 45.471 43.383 45.132C44.369 44.982 45 44.128 45 43.219V38.847C45.0001 38.3736 44.8322 37.9155 44.5262 37.5542C44.2202 37.1929 43.796 36.9519 43.329 36.874L38.893 36.135C38.4711 36.0646 38.0377 36.1313 37.6565 36.3253C37.2753 36.5193 36.9664 36.8304 36.775 37.213L36.429 37.906C36.3067 37.8756 36.1856 37.8406 36.066 37.801C35.446 37.595 34.585 37.171 33.707 36.293C32.829 35.415 32.405 34.554 32.199 33.933C32.1504 33.786 32.1087 33.6369 32.074 33.486H32.073Z" fill="url(#paint1_linear_539_90)"/>
<defs>
<linearGradient id="paint0_linear_539_90" x1="1.11033" y1="34.8848" x2="90.2882" y2="34.9404" gradientUnits="userSpaceOnUse">
<stop stop-color="#E8B9AF"/>
<stop offset="0.67" stop-color="#8C4F3D"/>
<stop offset="1" stop-color="#631F1F"/>
</linearGradient>
<linearGradient id="paint1_linear_539_90" x1="25.0026" y1="35.1262" x2="50.8893" y2="35.1423" gradientUnits="userSpaceOnUse">
<stop stop-color="#E8B9AF"/>
<stop offset="0.67" stop-color="#8C4F3D"/>
<stop offset="1" stop-color="#631F1F"/>
</linearGradient>
</defs>
</svg>
