<svg width="70" height="70" viewBox="0 0 70 70" fill="none" xmlns="http://www.w3.org/2000/svg">
<rect x="0.5" y="0.5" width="69" height="69" rx="34.5" stroke="url(#paint0_linear_539_91)"/>
<g clip-path="url(#clip0_539_91)">
<path d="M35.0565 20.0334H35.0575C36.8769 20.0274 38.6798 20.3837 40.3602 21.0813C42.0405 21.7789 43.5654 22.8042 44.8456 24.0969H44.8466C47.4581 26.7085 48.8954 30.1857 48.8954 33.887C48.8952 41.5114 42.681 47.7258 35.0565 47.7258C32.7387 47.7258 30.4624 47.1396 28.4374 46.0364L28.368 45.9983L28.2909 46.0178L21.1884 47.884L23.0809 40.9377L23.1024 40.8577L23.0614 40.7854C21.8603 38.6904 21.2177 36.3162 21.2177 33.8723C21.2178 26.2479 27.4321 20.0335 35.0565 20.0334ZM35.0428 21.9993C28.5008 21.9993 23.1689 27.3303 23.1688 33.8723C23.1702 36.1046 23.7992 38.2921 24.9843 40.1838L24.9862 40.1858L25.2206 40.55L24.0692 44.7708L23.9774 45.1047L24.3124 45.0168L28.6503 43.8752L29.0038 44.0881L29.0048 44.0891C30.8344 45.1696 32.9238 45.7453 35.0565 45.7454C41.4959 45.7454 46.7637 40.594 46.8993 34.1917L46.9012 33.886C46.9071 32.3259 46.6037 30.7799 46.0077 29.3381C45.4861 28.0763 44.7498 26.9162 43.8329 25.9084L43.4286 25.4856C41.1953 23.2384 38.2122 21.9994 35.0428 21.9993ZM30.7645 27.5833C30.9076 27.5916 30.9604 27.5774 31.0477 27.6194C31.1031 27.646 31.1837 27.7077 31.2762 27.8704L31.3729 28.0706C31.6548 28.7752 32.3653 30.5103 32.455 30.6897C32.5254 30.8305 32.5573 30.9586 32.4833 31.1194C32.3678 31.3504 32.3073 31.4831 32.1561 31.6594C31.9749 31.8709 31.7914 32.1091 31.6425 32.2581C31.5551 32.3455 31.433 32.4674 31.3749 32.6292C31.3102 32.809 31.3336 33.0039 31.454 33.219L31.4569 33.2249C31.671 33.5816 32.378 34.751 33.4501 35.7073C34.8008 36.9143 35.9628 37.3127 36.3104 37.4778V37.4788C36.5006 37.5776 36.6853 37.6373 36.8661 37.6165C37.0545 37.5946 37.1986 37.4896 37.3173 37.3469L37.3182 37.3479C37.5161 37.1218 38.1888 36.3189 38.4374 35.9534C38.5346 35.8173 38.6056 35.7914 38.6591 35.7854C38.7338 35.7771 38.8289 35.8007 38.996 35.8586C39.3154 35.991 41.013 36.826 41.3739 36.9993C41.5638 37.0904 41.6888 37.1431 41.7948 37.1995C41.8953 37.253 41.9356 37.2899 41.9569 37.3235C41.9584 37.3282 41.9716 37.3624 41.9794 37.4456C41.9873 37.531 41.9881 37.6462 41.9764 37.7854C41.9531 38.0633 41.882 38.4251 41.7391 38.8196L41.7382 38.8225C41.6192 39.1671 41.2467 39.5296 40.785 39.8264C40.3851 40.0835 39.9572 40.2669 39.6542 40.3381L39.5341 40.3606C38.9387 40.4437 38.2079 40.4828 37.413 40.2268L37.41 40.2258C36.9043 40.0713 36.2604 39.8623 35.4344 39.4983L35.4335 39.4973L35.1132 39.3518C31.8395 37.7921 29.6952 34.5076 29.5253 34.2668L29.5214 34.2629L29.2333 33.8528C29.0945 33.6423 28.9248 33.3644 28.7606 33.0413C28.4308 32.3919 28.1308 31.5749 28.1307 30.7561C28.1307 29.1151 28.9812 28.316 29.2968 27.9583C29.5785 27.6522 29.8897 27.5843 30.0839 27.5842H30.7645V27.5833Z" fill="url(#paint1_linear_539_91)" stroke="#FFF7EB" stroke-width="0.4"/>
</g>
<defs>
<linearGradient id="paint0_linear_539_91" x1="1.11033" y1="34.8848" x2="90.2882" y2="34.9404" gradientUnits="userSpaceOnUse">
<stop stop-color="#E8B9AF"/>
<stop offset="0.67" stop-color="#8C4F3D"/>
<stop offset="1" stop-color="#631F1F"/>
</linearGradient>
<linearGradient id="paint1_linear_539_91" x1="21.3513" y1="33.9533" x2="57.2667" y2="33.9756" gradientUnits="userSpaceOnUse">
<stop stop-color="#E8B9AF"/>
<stop offset="0.67" stop-color="#8C4F3D"/>
<stop offset="1" stop-color="#631F1F"/>
</linearGradient>
<clipPath id="clip0_539_91">
<rect width="34" height="34" fill="white" transform="translate(18 18)"/>
</clipPath>
</defs>
</svg>
