<svg width="52" height="52" viewBox="0 0 52 52" fill="none" xmlns="http://www.w3.org/2000/svg">
<circle cx="26" cy="26" r="25.5" stroke="url(#paint0_linear_571_1241)"/>
<path d="M24.1429 29.9286L30.0743 26.5L24.1429 23.0714V29.9286ZM37.3543 20.98C37.5029 21.5171 37.6057 22.2371 37.6743 23.1514C37.7543 24.0657 37.7886 24.8543 37.7886 25.54L37.8571 26.5C37.8571 29.0029 37.6743 30.8429 37.3543 32.02C37.0686 33.0486 36.4057 33.7114 35.3771 33.9971C34.84 34.1457 33.8571 34.2486 32.3486 34.3171C30.8629 34.3971 29.5029 34.4314 28.2457 34.4314L26.4286 34.5C21.64 34.5 18.6571 34.3171 17.48 33.9971C16.4514 33.7114 15.7886 33.0486 15.5029 32.02C15.3543 31.4829 15.2514 30.7629 15.1829 29.8486C15.1029 28.9343 15.0686 28.1457 15.0686 27.46L15 26.5C15 23.9971 15.1829 22.1571 15.5029 20.98C15.7886 19.9514 16.4514 19.2886 17.48 19.0029C18.0171 18.8543 19 18.7514 20.5086 18.6829C21.9943 18.6029 23.3543 18.5686 24.6114 18.5686L26.4286 18.5C31.2171 18.5 34.2 18.6829 35.3771 19.0029C36.4057 19.2886 37.0686 19.9514 37.3543 20.98Z" fill="url(#paint1_linear_571_1241)"/>
<defs>
<linearGradient id="paint0_linear_571_1241" x1="0.824819" y1="25.9144" x2="67.0713" y2="25.9557" gradientUnits="userSpaceOnUse">
<stop stop-color="#E8B9AF"/>
<stop offset="0.67" stop-color="#8C4F3D"/>
<stop offset="1" stop-color="#631F1F"/>
</linearGradient>
<linearGradient id="paint1_linear_571_1241" x1="15.3626" y1="26.4737" x2="44.4819" y2="26.4996" gradientUnits="userSpaceOnUse">
<stop stop-color="#E8B9AF"/>
<stop offset="0.67" stop-color="#8C4F3D"/>
<stop offset="1" stop-color="#631F1F"/>
</linearGradient>
</defs>
</svg>
