<svg width="1610" height="808" viewBox="0 0 1610 808" fill="none" xmlns="http://www.w3.org/2000/svg">
<path d="M804.721 433.588V429.101L781.258 405.543L804.721 381.984V377.497L776.789 405.543L804.721 433.588ZM712.545 703.67L718.132 709.279L768.688 658.516L718.132 607.753L712.545 613.362L706.959 607.753L656.402 658.516L706.959 709.279L712.545 703.67ZM718.132 612.521L764.219 658.796L718.132 705.072L714.78 701.706L757.516 658.796L714.78 615.886L718.132 612.521ZM752.767 658.516L712.545 698.902L672.323 658.516L712.545 618.13L752.767 658.516ZM706.959 612.521L710.311 615.886L667.575 658.796L710.311 701.706L706.959 705.072L660.871 658.796L706.959 612.521ZM405.852 657.114L355.295 707.876L360.881 713.486L355.295 719.095L405.852 769.858L456.409 719.095L450.822 713.486L456.409 707.876L405.852 657.114ZM451.94 719.095L405.852 765.37L359.764 719.095L363.116 715.729L405.852 758.639L448.588 715.729L451.94 719.095ZM365.63 713.486L405.852 673.1L446.074 713.486L405.852 753.872L365.63 713.486ZM448.588 711.242L405.852 668.332L363.116 711.242L359.764 707.876L405.852 661.601L451.66 707.876L448.308 711.242H448.588ZM526.239 536.236L475.682 586.999L481.268 592.608L475.682 598.217L526.239 648.98L576.796 598.217L571.209 592.608L576.796 586.999L526.239 536.236ZM572.327 598.217L526.239 644.493L480.151 598.217L483.503 594.852L526.239 637.762L568.975 594.852L572.327 598.217ZM486.017 592.608L526.239 552.222L566.461 592.608L526.239 632.994L486.017 592.608ZM568.975 590.364L526.239 547.454L483.503 590.364L480.151 586.999L526.239 540.723L572.327 586.999L568.975 590.364ZM804.721 191.833V187.346L781.258 163.788L804.721 140.229V135.742L776.789 163.788L804.721 191.833ZM716.735 345.244L722.321 350.853L716.735 356.462L767.292 407.225L805 369.363V364.876L767.292 402.738L721.204 356.462L724.556 353.097L767.292 396.007L805 358.145V353.658L767.292 391.52L727.07 351.134L767.292 310.748L805 348.609V344.122L767.292 306.26L724.556 349.17L721.204 345.805L767.292 299.529L805 337.391V332.904L767.292 295.042L716.735 345.805V345.244ZM804.721 323.929V319.442L781.258 295.883L804.721 272.325V267.838L776.789 295.883L804.721 323.929ZM646.626 415.359L596.069 466.121L601.655 471.731L596.069 477.34L646.626 528.103L697.183 477.34L691.596 471.731L697.183 466.121L646.626 415.359ZM692.713 477.34L646.626 523.615L600.538 477.34L603.89 473.974L646.626 516.884L689.362 473.974L692.713 477.34ZM606.404 471.731L646.626 431.345L686.848 471.731L646.626 512.117L606.404 471.731ZM689.362 469.487L646.626 426.577L603.89 469.487L600.538 466.121L646.626 419.846L692.713 466.121L689.362 469.487ZM592.158 118.914L586.572 113.305L536.015 164.068L586.572 214.831L592.158 209.222L597.745 214.831L648.302 164.068L597.745 113.305L592.158 118.914ZM586.572 210.063L540.484 163.788L586.572 117.512L589.924 120.877L547.188 163.788L589.924 206.698L586.572 210.063ZM551.657 163.788L591.879 123.402L632.101 163.788L591.879 204.174L551.657 163.788ZM597.745 210.063L594.393 206.698L637.129 163.788L594.393 120.877L597.745 117.512L643.832 163.788L597.745 210.063ZM804.721 675.343V670.856L781.258 647.297L804.721 623.739V619.252L776.789 647.297L804.721 675.343ZM727.908 224.367L733.494 229.976L727.908 235.585L778.465 286.348L805 259.704V255.217L778.465 281.86L732.377 235.585L735.729 232.219L778.465 275.129L805 248.486V243.999L778.465 270.642L738.243 230.256L778.465 189.87L805 216.514V212.026L778.465 185.383L735.729 228.293L732.377 224.927L778.465 178.652L805 205.295V200.808L778.465 174.165L727.908 224.927V224.367ZM285.465 165.47L336.022 114.707L330.435 109.098L336.022 103.489L285.465 52.7261L234.908 103.489L240.494 109.098L234.908 114.707L285.465 165.47ZM239.656 103.489L285.744 57.2135L331.832 103.489L328.48 106.855L285.744 63.9445L243.008 106.855L239.656 103.489ZM325.966 109.098L285.744 149.484L245.522 109.098L285.744 68.7122L325.966 109.098ZM243.008 111.342L285.744 154.252L328.48 111.342L331.832 114.707L285.744 160.983L239.656 114.707L243.008 111.342ZM804.721 554.466V549.979L792.431 537.638L804.721 525.298V520.811L787.961 537.638L804.721 554.466ZM597.745 728.911L592.158 734.52L586.572 728.911L536.015 779.674L564.226 808H568.695L540.484 779.674L586.572 733.398L589.924 736.764L547.188 779.674L575.399 808H579.868L551.657 779.674L591.879 739.288L632.101 779.674L603.89 808H608.359L636.57 779.674L593.834 736.764L597.186 733.398L643.274 779.674L615.062 808H619.532L647.743 779.674L597.186 728.911H597.745ZM804.721 82.4547V77.9674L781.258 54.4089L804.721 30.8504V26.3631L776.789 54.4089L804.721 82.4547ZM804.721 70.9559V66.4686L792.431 54.1284L804.721 41.7883V37.3009L787.961 54.1284L804.721 70.9559ZM804.721 422.37V417.883L792.431 405.543L804.721 393.202V388.715L787.961 405.543L804.721 422.37ZM105.024 456.305L110.611 450.696L116.197 456.305L166.754 405.543L116.197 354.78L110.611 360.389L105.024 354.78L54.4674 405.543L105.024 456.305ZM116.197 359.547L162.285 405.823L116.197 452.099L112.845 448.733L155.581 405.823L112.845 362.913L116.197 359.547ZM150.833 405.543L110.611 445.928L70.3886 405.543L110.611 365.157L150.833 405.543ZM105.024 359.547L108.376 362.913L65.6402 405.823L108.376 448.733L105.024 452.099L58.9365 405.823L105.024 359.547ZM706.959 93.673L712.545 88.0639L718.132 93.673L768.688 42.9101L725.952 0H721.483L764.219 42.9101L718.132 89.1857L714.78 85.8202L757.516 42.9101L714.78 0H709.752L667.016 42.9101L709.752 85.8202L706.4 89.1857L660.312 42.9101L703.048 0H698.579L655.843 42.9101L706.4 93.673H706.959ZM672.044 42.9101L712.266 2.52412L752.488 42.9101L712.266 83.2961L672.044 42.9101ZM804.721 312.711V308.224L792.431 295.883L804.721 283.543V279.056L787.961 295.883L804.721 312.711ZM165.078 657.114L114.521 707.876L120.108 713.486L114.521 719.095L165.078 769.858L215.635 719.095L210.049 713.486L215.635 707.876L165.078 657.114ZM211.166 719.095L165.078 765.37L118.99 719.095L122.342 715.729L165.078 758.639L207.814 715.729L211.166 719.095ZM124.856 713.486L165.078 673.1L205.3 713.486L165.078 753.872L124.856 713.486ZM207.814 711.242L165.078 668.332L122.342 711.242L118.99 707.876L165.078 661.601L211.166 707.876L207.814 711.242ZM236.584 717.692L230.998 723.302L225.411 717.692L174.854 768.455L214.238 808H218.707L179.323 768.455L225.411 722.18L228.763 725.545L186.027 768.455L225.411 808H229.88L190.496 768.455L230.718 728.069L270.94 768.455L231.556 808H236.025L275.409 768.455L232.673 725.545L236.025 722.18L282.113 768.455L242.729 808H247.198L286.582 768.455L236.025 717.692H236.584ZM804.721 180.615V176.128L792.431 163.788L804.721 151.447V146.96L787.961 163.788L804.721 180.615ZM116.197 698.06L166.754 647.297L116.197 596.535L110.611 602.144L105.024 596.535L54.4674 647.297L105.024 698.06L110.611 692.451L116.197 698.06ZM116.197 601.302L162.285 647.578L116.197 693.854L112.845 690.488L155.581 647.578L112.845 604.668L116.197 601.302ZM150.833 647.297L110.611 687.683L70.3886 647.297L110.611 606.911L150.833 647.297ZM105.024 693.573L58.9365 647.297L105.024 601.022L108.376 604.387L65.6402 647.297L108.376 690.208L105.024 693.573ZM176.251 407.225L226.808 356.462L221.221 350.853L226.808 345.244L176.251 294.481L125.694 345.244L131.28 350.853L125.694 356.462L176.251 407.225ZM130.442 345.244L176.53 298.968L222.618 345.244L219.266 348.609L176.53 305.699L133.794 348.609L130.442 345.244ZM216.752 350.853L176.53 391.239L136.308 350.853L176.53 310.467L216.752 350.853ZM133.794 353.097L176.53 396.007L219.266 353.097L222.618 356.462L176.53 402.738L130.442 356.462L133.794 353.097ZM0.27932 381.984V386.471L30.4459 416.761L0.27932 447.05V451.538L35.1943 416.48L0.27932 381.423V381.984ZM55.864 528.103L106.421 477.34L100.834 471.731L106.421 466.121L55.864 415.359L5.5864 466.121L11.1728 471.731L5.5864 477.34L56.1433 528.103H55.864ZM10.0555 466.121L56.1433 419.846L102.231 466.121L98.8792 469.487L56.1433 426.577L13.4074 469.487L10.0555 466.121ZM96.3654 471.731L56.1433 512.117L15.9212 471.731L56.1433 431.345L96.3654 471.731ZM13.4074 473.974L56.1433 516.884L98.8792 473.974L102.231 477.34L56.1433 523.615L10.0555 477.34L13.4074 473.974ZM0.27932 249.888V254.376L30.4459 284.665L0.27932 315.235V319.722L35.1943 284.945L0.27932 249.888ZM639.643 807.72H644.112L658.078 793.697L672.044 807.72H676.513L658.078 789.209L639.643 807.72ZM628.47 807.72H632.939L658.078 782.478L683.216 807.72H687.686L658.078 777.991L628.47 807.72ZM0.27932 491.643V496.13L30.4459 526.42L0.27932 556.709V561.197L35.1943 526.42L0.27932 491.363V491.643ZM146.922 807.72H151.391L176.53 782.478L201.669 807.72H206.138L176.53 777.991L146.922 807.72ZM0.27932 480.425V484.912L41.6187 526.42L0.27932 567.928V572.415L46.3671 526.14L0.27932 480.425ZM0.27932 370.766V375.253L41.6187 416.761L0.27932 458.269V462.756L46.3671 416.48L0.27932 370.766ZM716.735 586.999L722.321 592.608L716.735 598.217L767.292 648.98L805 611.118V606.631L767.292 644.493L721.204 598.217L724.556 594.852L767.292 637.762L805 599.9V595.413L767.292 633.275L727.07 592.889L767.292 552.503L805 590.364V585.877L767.292 548.015L724.556 590.925L721.204 587.56L767.292 541.284L805 579.146V574.659L767.292 536.797L716.735 587.56V586.999ZM748.857 807.72H753.326L767.292 793.697L781.258 807.72H785.727L767.292 789.209L748.857 807.72ZM716.735 103.489L722.321 109.098L716.735 114.707L767.292 165.47L805 127.608V123.121L767.292 160.983L721.204 114.707L724.556 111.342L767.292 154.252L805 116.39V111.903L767.292 149.765L727.07 109.379L767.292 68.9927L805 106.855V102.367L767.292 64.5054L724.556 107.415L721.204 104.05L767.292 57.7744L805 95.6362V91.1489L767.292 53.287L716.735 104.05V103.489ZM718.132 717.692L712.545 723.302L706.959 717.692L656.402 768.455L695.786 808H700.255L660.871 768.455L706.959 722.18L710.311 725.545L667.575 768.455L706.959 808H711.428L672.044 768.455L712.266 728.069L752.488 768.455L713.104 808H717.573L756.957 768.455L714.221 725.545L717.573 722.18L763.661 768.455L724.277 808H728.746L768.13 768.455L717.573 717.692H718.132ZM100.276 0H95.8067L55.864 40.1055L16.2006 0H11.7314L56.1433 44.5928L100.276 0ZM727.908 707.876L733.494 713.486L727.908 719.095L778.465 769.858L805 743.214V738.727L778.465 765.37L732.377 719.095L735.729 715.729L778.465 758.639L805 731.996V727.508L778.465 754.152L738.243 713.766L778.465 673.38L805 700.024V695.536L778.465 668.893L735.729 711.803L732.377 708.437L778.465 662.162L805 688.805V684.318L778.465 657.674L727.908 708.437V707.876ZM198.317 0H193.848L165.357 28.6067L136.587 0H132.118L165.357 33.3745L198.317 0ZM116.197 728.911L110.611 734.52L105.024 728.911L54.4674 779.674L82.6787 808H87.1478L58.9365 779.674L105.024 733.398L108.376 736.764L65.6402 779.674L93.8515 808H98.3206L70.1093 779.674L110.331 739.288L150.553 779.674L122.342 808H126.811L155.023 779.674L112.287 736.764L115.638 733.398L161.726 779.674L133.515 808H137.984L166.195 779.674L115.638 728.911H116.197ZM176.251 165.47L226.808 114.707L221.221 109.098L226.808 103.489L176.251 52.7261L125.694 103.489L131.28 109.098L125.694 114.707L176.251 165.47ZM130.442 103.489L176.53 57.2135L222.618 103.489L219.266 106.855L176.53 63.9445L133.794 106.855L130.442 103.489ZM216.752 109.098L176.53 149.484L136.308 109.098L176.53 68.7122L216.752 109.098ZM133.794 111.342L176.53 154.252L219.266 111.342L222.618 114.707L176.53 160.983L130.442 114.707L133.794 111.342ZM55.864 657.114L5.5864 707.876L11.1728 713.486L5.5864 719.095L56.1433 769.858L106.7 719.095L101.114 713.486L106.7 707.876L56.1433 657.114H55.864ZM101.952 719.095L55.864 765.37L9.7762 719.095L13.128 715.729L55.864 758.639L98.5999 715.729L101.952 719.095ZM15.6419 713.486L55.864 673.1L96.086 713.486L55.864 753.872L15.6419 713.486ZM98.5999 711.242L55.864 668.332L13.128 711.242L9.7762 707.876L55.864 661.601L101.952 707.876L98.5999 711.242ZM778.185 28.6067L749.415 0H744.946L778.185 33.3745L804.721 6.731V2.24367L778.185 28.8872V28.6067ZM738.522 0H734.053L778.465 44.5928L805 17.9493V13.462L778.465 40.1055L738.522 0ZM804.721 796.221V791.733L792.431 779.393L804.721 767.053V762.566L787.961 779.393L804.721 796.221ZM3.35184 0H0.27932V1.40229L41.6187 42.9101L0.27932 84.6984V89.1857L46.3671 42.9101L3.35184 0ZM737.405 807.72H741.874L767.013 782.478L792.151 807.72H796.62L767.013 777.991L737.405 807.72ZM646.626 657.114L596.069 707.876L601.655 713.486L596.069 719.095L646.626 769.858L697.183 719.095L691.596 713.486L697.183 707.876L646.626 657.114ZM692.713 719.095L646.626 765.37L600.538 719.095L603.89 715.729L646.626 758.639L689.362 715.729L692.713 719.095ZM606.404 713.486L646.626 673.1L686.848 713.486L646.626 753.872L606.404 713.486ZM689.362 711.242L646.626 668.332L603.89 711.242L600.538 707.876L646.626 661.601L692.713 707.876L689.362 711.242ZM804.721 807.439V802.952L781.258 779.393L804.721 755.835V751.347L776.789 779.393L804.721 807.439ZM89.1031 0H84.6339L56.1433 28.6067L27.3734 0H22.9042L56.1433 33.3745L89.1031 0ZM0.27932 8.13329V12.6206L30.4459 42.9101L0.27932 73.48V77.9674L35.1943 42.9101L0.27932 8.13329ZM768.409 284.665L717.852 233.902L712.266 239.511L706.679 233.902L656.122 284.665L706.679 335.428L712.266 329.819L717.852 335.428L768.409 284.665ZM706.959 330.941L660.871 284.665L706.959 238.389L710.311 241.755L667.575 284.665L710.311 327.575L706.959 330.941ZM672.044 284.665L712.266 244.279L752.488 284.665L712.266 325.051L672.044 284.665ZM757.236 284.665L714.5 241.755L717.852 238.389L763.94 284.665L717.852 330.941L714.5 327.575L757.236 284.665ZM0.27932 140.229V144.716L30.4459 175.006L0.27932 205.576V210.063L35.1943 175.006L0.27932 140.229ZM0.27932 238.67V243.157L41.6187 284.665L0.27932 326.453V330.941L46.3671 284.665L0.27932 238.67ZM105.024 104.891L110.611 99.2822L116.197 104.891L166.754 54.1284L116.197 3.64596L110.611 9.25512L105.024 3.64596L54.4674 54.4089L105.024 105.172V104.891ZM116.197 8.13329L162.285 54.4089L116.197 100.684L112.845 97.319L155.581 54.4089L112.845 11.4988L116.197 8.13329ZM150.833 54.4089L110.611 94.7949L70.3886 54.4089L110.611 14.0229L150.833 54.4089ZM108.376 11.4988L65.6402 54.4089L108.376 97.319L105.024 100.684L58.9365 54.4089L105.024 8.13329L108.376 11.4988ZM95.2481 598.217L89.6617 592.608L95.2481 586.999L44.6912 536.236L0.27932 580.829V585.316L44.6912 540.723L90.779 586.999L87.4271 590.364L44.6912 547.454L1.95524 590.364L0 588.401V596.815L1.95524 594.852L44.6912 637.762L87.4271 594.852L90.779 598.217L44.6912 644.493L0.27932 599.9V604.387L44.6912 648.98L95.2481 598.217ZM44.6912 632.994L4.46912 592.608L44.6912 552.222L84.9133 592.608L44.6912 632.994ZM0.27932 623.739V628.226L30.4459 658.516L0.27932 688.805V693.293L35.1943 658.235L0.27932 623.178V623.739ZM804.721 664.125V659.638L792.431 647.297L804.721 634.957V630.47L787.961 647.297L804.721 664.125ZM165.078 286.348L215.635 235.585L210.049 229.976L215.635 224.367L165.078 173.604L114.521 224.367L120.108 229.976L114.521 235.585L165.078 286.348ZM119.27 224.367L165.357 178.091L211.445 224.367L208.093 227.732L165.357 184.822L122.621 227.732L119.27 224.367ZM205.579 229.976L165.357 270.362L125.135 229.976L165.357 189.59L205.579 229.976ZM122.621 232.219L165.357 275.129L208.093 232.219L211.445 235.585L165.357 281.86L119.27 235.585L122.621 232.219ZM209.49 0H205.021L165.078 40.1055L125.415 0H120.946L165.357 44.5928L209.49 0ZM15.3626 807.72H19.8317L44.9705 782.478L70.1093 807.72H74.5784L44.9705 777.991L15.3626 807.72ZM657.798 536.236L607.242 586.999L612.828 592.608L607.242 598.217L657.798 648.98L708.355 598.217L702.769 592.608L708.355 586.999L657.798 536.236ZM703.886 598.217L657.798 644.493L611.711 598.217L615.062 594.852L657.798 637.762L700.534 594.852L703.886 598.217ZM617.576 592.608L657.798 552.222L698.02 592.608L657.798 632.994L617.576 592.608ZM700.534 590.364L657.798 547.454L615.062 590.364L611.711 586.999L657.798 540.723L703.886 586.999L700.534 590.364ZM0.27932 722.18V726.667L41.6187 768.175L2.23456 807.72H6.70368L46.0878 768.175L0.27932 722.18ZM26.5354 807.72H31.0045L44.9705 793.697L58.9365 807.72H63.4056L44.9705 789.209L26.5354 807.72ZM95.2481 114.707L89.6617 109.098L95.2481 103.489L44.6912 52.7261L0.27932 97.5994V102.087L44.6912 57.4939L90.779 103.77L87.4271 107.135L44.6912 64.2249L2.23456 106.855L0.27932 104.891V113.305L2.23456 111.342L44.9705 154.252L87.7065 111.342L91.0583 114.707L44.9705 160.983L0.27932 116.11V120.597L44.6912 165.19L95.2481 114.427V114.707ZM44.6912 149.484L4.46912 109.098L44.6912 68.7122L84.9133 109.098L44.6912 149.484ZM466.185 124.523L415.628 175.286L466.185 226.049L471.771 220.44L477.358 226.049L527.915 175.286L477.358 124.523L471.771 130.133L466.185 124.523ZM466.185 221.281L420.097 175.006L466.185 128.73L469.537 132.096L426.801 175.006L469.537 217.916L466.185 221.281ZM431.27 175.286L471.492 134.9L511.714 175.286L471.492 215.672L431.27 175.286ZM477.358 129.011L523.445 175.286L477.358 221.562L474.006 218.196L516.742 175.286L474.006 132.376L477.358 129.011ZM537.412 657.114L486.855 707.876L492.441 713.486L486.855 719.095L537.412 769.858L587.968 719.095L582.382 713.486L587.968 707.876L537.412 657.114ZM583.499 719.095L537.412 765.37L491.324 719.095L494.676 715.729L537.412 758.639L580.148 715.729L583.499 719.095ZM497.189 713.486L537.412 673.1L577.634 713.486L537.412 753.872L497.189 713.486ZM580.148 711.242L537.412 668.332L494.676 711.242L491.324 707.876L537.412 661.601L583.499 707.876L580.148 711.242ZM0.27932 733.398V737.885L30.4459 768.175L0.27932 798.464V802.952L35.1943 767.894L0.27932 732.837V733.398ZM471.771 703.67L477.358 709.279L527.915 658.516L477.358 607.753L471.771 613.362L466.185 607.753L415.628 658.516L466.185 709.279L471.771 703.67ZM477.358 612.521L523.445 658.796L477.358 705.072L474.006 701.706L516.742 658.796L474.006 615.886L477.358 612.521ZM511.993 658.516L471.771 698.902L431.549 658.516L471.771 618.13L511.993 658.516ZM466.185 612.521L469.537 615.886L426.801 658.796L469.537 701.706L466.185 705.072L420.097 658.796L466.185 612.521ZM471.771 239.792L466.185 234.183L415.628 284.945L466.185 335.708L471.771 330.099L477.358 335.708L527.915 284.945L477.358 234.183L471.771 239.792ZM466.185 330.941L420.097 284.665L466.185 238.389L469.537 241.755L426.801 284.665L469.537 327.575L466.185 330.941ZM431.27 284.665L471.492 244.279L511.714 284.665L471.492 325.051L431.27 284.665ZM477.358 330.941L474.006 327.575L516.742 284.665L474.006 241.755L477.358 238.389L523.445 284.665L477.358 330.941ZM471.771 371.888L466.185 366.278L415.628 417.041L466.185 467.804L471.771 462.195L477.358 467.804L527.915 417.041L477.358 366.278L471.771 371.888ZM466.185 463.036L420.097 416.761L466.185 370.485L469.537 373.851L426.801 416.761L469.537 459.671L466.185 463.036ZM431.27 417.041L471.492 376.655L511.714 417.041L471.492 457.427L431.27 417.041ZM477.358 463.036L474.006 459.671L516.742 416.761L474.006 373.851L477.358 370.485L523.445 416.761L477.358 463.036ZM345.798 104.891L351.384 99.2822L356.971 104.891L407.528 54.1284L356.971 3.64596L351.384 9.25512L345.798 3.64596L295.241 54.4089L345.798 105.172V104.891ZM356.971 8.13329L403.059 54.4089L356.971 100.684L353.619 97.319L396.355 54.4089L353.619 11.4988L356.971 8.13329ZM391.607 54.4089L351.384 94.7949L311.162 54.4089L351.384 14.0229L391.607 54.4089ZM349.15 11.4988L306.414 54.4089L349.15 97.319L345.798 100.684L299.71 54.4089L345.798 8.13329L349.15 11.4988ZM236.584 577.183L287.141 526.42L236.584 475.657L230.998 481.266L225.411 475.657L174.854 526.42L225.411 577.183L230.998 571.574L236.584 577.183ZM236.584 480.425L282.672 526.7L236.584 572.976L233.232 569.611L275.968 526.7L233.232 483.79L236.584 480.425ZM271.22 526.42L230.998 566.806L190.775 526.42L230.998 486.034L271.22 526.42ZM225.411 572.696L179.323 526.42L225.411 480.144L228.763 483.51L186.027 526.42L228.763 569.33L225.411 572.696ZM477.358 717.692L471.771 723.302L466.185 717.692L415.628 768.455L455.012 808H459.481L420.097 768.455L466.185 722.18L469.537 725.545L426.801 768.455L466.185 808H470.654L431.27 768.455L471.492 728.069L511.714 768.455L472.33 808H476.799L516.183 768.455L473.447 725.545L476.799 722.18L522.887 768.175L483.503 807.72H487.972L527.356 768.175L476.799 717.412L477.358 717.692ZM496.631 807.72H501.1L526.239 782.478L551.378 807.72H555.847L526.239 777.991L496.631 807.72ZM345.798 245.401L295.241 296.164L345.798 346.927L351.384 341.318L356.971 346.927L407.528 296.164L356.971 245.401L351.384 251.01L345.798 245.401ZM345.798 342.159L299.71 295.883L345.798 249.608L349.15 252.973L306.414 295.883L349.15 338.793L345.798 342.159ZM310.883 296.164L351.105 255.778L391.327 296.164L351.105 336.55L310.883 296.164ZM356.971 249.888L403.059 296.164L356.971 342.439L353.619 339.074L396.355 296.164L353.619 253.254L356.971 249.888ZM158.095 807.72H162.564L176.53 793.697L190.496 807.72H194.965L176.53 789.209L158.095 807.72ZM417.025 407.225L467.582 356.462L461.995 350.853L467.582 345.244L417.025 294.481L366.468 345.244L372.054 350.853L366.468 356.462L417.025 407.225ZM371.216 345.244L417.304 298.968L463.392 345.244L460.04 348.609L417.304 305.699L374.568 348.609L371.216 345.244ZM457.526 350.853L417.304 391.239L377.082 350.853L417.304 310.467L457.526 350.853ZM374.568 353.097L417.304 396.007L460.04 353.097L463.392 356.462L417.304 402.738L371.216 356.462L374.568 353.097ZM597.745 698.06L648.302 647.297L597.745 596.535L592.158 602.144L586.572 596.535L536.015 647.297L586.572 698.06L592.158 692.451L597.745 698.06ZM597.745 601.302L643.832 647.578L597.745 693.854L594.393 690.488L637.129 647.578L594.393 604.668L597.745 601.302ZM586.572 693.573L540.484 647.297L586.572 601.022L589.924 604.387L547.188 647.297L589.924 690.208L586.572 693.573ZM551.657 647.297L591.879 606.911L632.101 647.297L591.879 687.683L551.657 647.297ZM768.409 526.42L717.852 475.657L712.266 481.266L706.679 475.657L656.122 526.42L706.679 577.183L712.266 571.574L717.852 577.183L768.409 526.42ZM706.959 572.696L660.871 526.42L706.959 480.144L710.311 483.51L667.575 526.42L710.311 569.33L706.959 572.696ZM672.044 526.42L712.266 486.034L752.488 526.42L712.266 566.806L672.044 526.42ZM757.236 526.42L714.5 483.51L717.852 480.144L763.94 526.42L717.852 572.696L714.5 569.33L757.236 526.42ZM727.908 466.121L733.494 471.731L727.908 477.34L778.465 528.103L805 501.459V496.972L778.465 523.615L732.377 477.34L735.729 473.974L778.465 516.884L805 490.241V485.754L778.465 512.397L738.243 472.011L778.465 431.625L805 458.269V453.781L778.465 427.138L735.729 470.048L732.377 466.682L778.465 420.407L805 447.05V442.563L778.465 415.919L727.908 466.682V466.121ZM255.857 807.72H260.326L285.465 782.478L310.604 807.72H315.073L285.465 777.991L255.857 807.72ZM110.611 582.792L116.197 588.401L166.754 537.638L116.197 486.875L110.611 492.485L105.024 486.875L54.4674 537.638L105.024 588.401L110.611 582.792ZM116.197 491.643L162.285 537.919L116.197 584.194L112.845 580.829L155.581 537.919L112.845 495.009L116.197 491.643ZM150.833 537.919L110.611 578.305L70.3886 537.919L110.611 497.533L150.833 537.919ZM105.024 491.643L108.376 495.009L65.6402 537.919L108.376 580.829L105.024 584.194L58.9365 537.919L105.024 491.643ZM356.971 456.305L407.528 405.543L356.971 354.78L351.384 360.389L345.798 354.78L295.241 405.543L345.798 456.305L351.384 450.696L356.971 456.305ZM356.971 359.547L403.059 405.823L356.971 452.099L353.619 448.733L396.355 405.823L353.619 362.913L356.971 359.547ZM391.607 405.543L351.384 445.928L311.162 405.543L351.384 365.157L391.607 405.543ZM345.798 451.818L299.71 405.543L345.798 359.267L349.15 362.632L306.414 405.543L349.15 448.453L345.798 451.818ZM592.158 251.01L586.572 245.401L536.015 296.164L586.572 346.927L592.158 341.318L597.745 346.927L648.302 296.164L597.745 245.401L592.158 251.01ZM586.572 342.159L540.484 295.883L586.572 249.608L589.924 252.973L547.188 295.883L589.924 338.793L586.572 342.159ZM551.657 296.164L591.879 255.778L632.101 296.164L591.879 336.55L551.657 296.164ZM597.745 342.159L594.393 338.793L637.129 295.883L594.393 252.973L597.745 249.608L643.832 295.883L597.745 342.159ZM646.626 173.604L596.069 224.367L601.655 229.976L596.069 235.585L646.626 286.348L697.183 235.585L691.596 229.976L697.183 224.367L646.626 173.604ZM692.713 235.585L646.626 281.86L600.538 235.585L603.89 232.219L646.626 275.129L689.362 232.219L692.713 235.585ZM606.404 229.976L646.626 189.59L686.848 229.976L646.626 270.362L606.404 229.976ZM689.362 227.732L646.626 184.822L603.89 227.732L600.538 224.367L646.626 178.091L692.713 224.367L689.362 227.732ZM267.309 807.72H271.778L285.744 793.697L299.71 807.72H304.179L285.744 789.209L267.309 807.72ZM477.358 577.183L527.915 526.42L477.358 475.657L471.771 481.266L466.185 475.657L415.628 526.42L466.185 577.183L471.771 571.574L477.358 577.183ZM477.358 480.425L523.445 526.7L477.358 572.976L474.006 569.611L516.742 526.7L474.006 483.79L477.358 480.425ZM511.993 526.42L471.771 566.806L431.549 526.42L471.771 486.034L511.993 526.42ZM466.185 572.696L420.097 526.42L466.185 480.144L469.537 483.51L426.801 526.42L469.537 569.33L466.185 572.696ZM230.998 703.67L236.584 709.279L287.141 658.516L236.584 607.753L230.998 613.362L225.411 607.753L174.854 658.516L225.411 709.279L230.998 703.67ZM236.584 612.521L282.672 658.796L236.584 705.072L233.232 701.706L275.968 658.796L233.232 615.886L236.584 612.521ZM271.22 658.516L230.998 698.902L190.775 658.516L230.998 618.13L271.22 658.516ZM225.411 612.521L228.763 615.886L186.027 658.796L228.763 701.706L225.411 705.072L179.323 658.796L225.411 612.521ZM165.078 528.103L215.635 477.34L210.049 471.731L215.635 466.121L165.078 415.359L114.521 466.121L120.108 471.731L114.521 477.34L165.078 528.103ZM119.27 466.121L165.357 419.846L211.445 466.121L208.093 469.487L165.357 426.577L122.621 469.487L119.27 466.121ZM205.579 471.731L165.357 512.117L125.135 471.731L165.357 431.345L205.579 471.731ZM122.621 473.974L165.357 516.884L208.093 473.974L211.445 477.34L165.357 523.615L119.27 477.34L122.621 473.974ZM351.384 582.792L356.971 588.401L407.528 537.638L356.971 486.875L351.384 492.485L345.798 486.875L295.241 537.638L345.798 588.401L351.384 582.792ZM356.971 491.643L403.059 537.919L356.971 584.194L353.619 580.829L396.355 537.919L353.619 495.009L356.971 491.643ZM391.607 537.919L351.384 578.305L311.162 537.919L351.384 497.533L391.607 537.919ZM345.798 491.643L349.15 495.009L306.414 537.919L349.15 580.829L345.798 584.194L299.71 537.919L345.798 491.643ZM95.2481 356.462L89.6617 350.853L95.2481 345.244L44.6912 294.481L0.27932 339.354V343.842L44.6912 299.249L90.779 345.524L87.4271 348.89L44.6912 305.98L2.23456 348.609L0.27932 346.646V355.06L2.23456 353.097L44.9705 396.007L87.7065 353.097L91.0583 356.462L44.9705 402.738L0.27932 357.865V362.352L44.6912 406.945L95.2481 356.182V356.462ZM44.6912 391.239L4.46912 350.853L44.6912 310.467L84.9133 350.853L44.6912 391.239ZM225.411 124.523L174.854 175.286L225.411 226.049L230.998 220.44L236.584 226.049L287.141 175.286L236.584 124.523L230.998 130.133L225.411 124.523ZM225.411 221.281L179.323 175.006L225.411 128.73L228.763 132.096L186.027 175.006L228.763 217.916L225.411 221.281ZM190.496 175.286L230.718 134.9L270.94 175.286L230.718 215.672L190.496 175.286ZM236.584 129.011L282.672 175.286L236.584 221.562L233.232 218.196L275.968 175.286L233.232 132.376L236.584 129.011ZM176.251 536.236L125.694 586.999L131.28 592.608L125.694 598.217L176.251 648.98L226.808 598.217L221.221 592.608L226.808 586.999L176.251 536.236ZM222.339 598.217L176.251 644.493L130.163 598.217L133.515 594.852L176.251 637.762L218.987 594.852L222.339 598.217ZM136.029 592.608L176.251 552.222L216.473 592.608L176.251 632.994L136.029 592.608ZM218.987 590.364L176.251 547.454L133.515 590.364L130.163 586.999L176.251 540.723L222.339 586.999L218.987 590.364ZM230.998 329.819L236.584 335.428L287.141 284.665L236.584 233.902L230.998 239.511L225.411 233.902L174.854 284.665L225.411 335.428L230.998 329.819ZM236.584 238.67L282.672 284.945L236.584 331.221L233.232 327.856L275.968 284.945L233.232 242.035L236.584 238.67ZM271.22 284.665L230.998 325.051L190.775 284.665L230.998 244.279L271.22 284.665ZM225.411 238.67L228.763 242.035L186.027 284.945L228.763 327.856L225.411 331.221L179.323 284.945L225.411 238.67ZM356.971 728.911L351.384 734.52L345.798 728.911L295.241 779.674L323.452 808H327.922L299.71 779.674L345.798 733.398L349.15 736.764L306.414 779.674L334.625 808H339.094L310.883 779.674L351.105 739.288L391.327 779.674L363.116 808H367.585L395.796 779.674L353.06 736.764L356.412 733.398L402.5 779.674L374.289 808H378.758L406.969 779.674L356.412 728.911H356.971ZM230.998 461.915L236.584 467.524L287.141 416.761L236.584 365.998L230.998 371.607L225.411 365.998L174.854 416.761L225.411 467.524L230.998 461.915ZM236.584 370.766L282.672 417.041L236.584 463.317L233.232 459.951L275.968 417.041L233.232 374.131L236.584 370.766ZM271.22 417.041L230.998 457.427L190.775 417.041L230.998 376.655L271.22 417.041ZM225.411 370.766L228.763 374.131L186.027 417.041L228.763 459.951L225.411 463.317L179.323 417.041L225.411 370.766ZM804.721 565.684V561.197L781.258 537.638L804.721 514.08V509.592L776.789 537.638L804.721 565.684ZM508.083 807.72H512.552L526.518 793.697L540.484 807.72H544.953L526.518 789.209L508.083 807.72ZM398.869 807.72H403.338L417.304 793.697L431.27 807.72H435.739L417.304 789.209L398.869 807.72ZM296.638 415.359L246.081 466.121L251.667 471.731L246.081 477.34L296.638 528.103L347.195 477.34L341.608 471.731L347.195 466.121L296.638 415.359ZM342.726 477.34L296.638 523.615L250.55 477.34L253.902 473.974L296.638 516.884L339.374 473.974L342.726 477.34ZM256.416 471.731L296.638 431.345L336.86 471.731L296.638 512.117L256.416 471.731ZM339.374 469.487L296.638 426.577L253.902 469.487L250.55 466.121L296.638 419.846L342.726 466.121L339.374 469.487ZM387.696 807.72H392.165L417.304 782.478L442.443 807.72H446.912L417.304 777.991L387.696 807.72ZM296.638 657.114L246.081 707.876L251.667 713.486L246.081 719.095L296.638 769.858L347.195 719.095L341.608 713.486L347.195 707.876L296.638 657.114ZM342.726 719.095L296.638 765.37L250.55 719.095L253.902 715.729L296.638 758.639L339.374 715.729L342.726 719.095ZM256.416 713.486L296.638 673.1L336.86 713.486L296.638 753.872L256.416 713.486ZM339.374 711.242L296.638 668.332L253.902 711.242L250.55 707.876L296.638 661.601L342.726 707.876L339.374 711.242ZM526.239 165.47L576.796 114.707L571.209 109.098L576.796 103.489L526.239 52.7261L475.682 103.489L481.268 109.098L475.682 114.707L526.239 165.47ZM480.43 103.489L526.518 57.2135L572.606 103.489L569.254 106.855L526.518 63.9445L483.782 106.855L480.43 103.489ZM566.74 109.098L526.518 149.484L486.296 109.098L526.518 68.7122L566.74 109.098ZM483.782 111.342L526.518 154.252L569.254 111.342L572.606 114.707L526.518 160.983L480.43 114.707L483.782 111.342ZM592.158 360.669L586.572 355.06L536.015 405.823L586.572 456.586L592.158 450.977L597.745 456.586L648.302 405.823L597.745 355.06L592.158 360.669ZM586.572 451.818L540.484 405.543L586.572 359.267L589.924 362.632L547.188 405.543L589.924 448.453L586.572 451.818ZM551.657 405.543L591.879 365.157L632.101 405.543L591.879 445.928L551.657 405.543ZM597.745 451.818L594.393 448.453L637.129 405.543L594.393 362.632L597.745 359.267L643.832 405.543L597.745 451.818ZM718.132 366.278L712.545 371.888L706.959 366.278L656.402 417.041L706.959 467.804L712.545 462.195L718.132 467.804L768.688 417.041L718.132 366.278ZM706.959 463.036L660.871 416.761L706.959 370.485L710.311 373.851L667.575 416.761L710.311 459.671L706.959 463.036ZM672.044 417.041L712.266 376.655L752.488 417.041L712.266 457.427L672.044 417.041ZM714.78 459.671L757.516 416.761L714.78 373.851L718.132 370.485L764.219 416.761L718.132 463.036L714.78 459.671ZM537.412 415.359L486.855 466.121L492.441 471.731L486.855 477.34L537.412 528.103L587.968 477.34L582.382 471.731L587.968 466.121L537.412 415.359ZM583.499 477.34L537.412 523.615L491.324 477.34L494.676 473.974L537.412 516.884L580.148 473.974L583.499 477.34ZM497.189 471.731L537.412 431.345L577.634 471.731L537.412 512.117L497.189 471.731ZM580.148 469.487L537.412 426.577L494.676 469.487L491.324 466.121L537.412 419.846L583.499 466.121L580.148 469.487ZM110.611 118.914L105.024 113.305L54.4674 164.068L105.024 214.831L110.611 209.222L116.197 214.831L166.754 164.068L116.197 113.305L110.611 118.914ZM105.024 210.063L58.9365 163.788L105.024 117.512L108.376 120.877L65.6402 163.788L108.376 206.698L105.024 210.063ZM70.1093 163.788L110.331 123.402L150.553 163.788L110.331 204.174L70.1093 163.788ZM116.197 210.063L112.845 206.698L155.581 163.788L112.845 120.877L116.197 117.512L162.285 163.788L116.197 210.063ZM466.185 93.673L471.771 88.0639L477.358 93.673L527.915 42.9101L485.179 0H480.71L523.445 42.9101L477.358 89.1857L474.006 85.8202L516.742 42.9101L474.006 0H468.978L426.242 42.9101L468.978 85.8202L465.626 89.1857L419.539 42.9101L462.274 0H457.805L415.069 42.9101L465.626 93.673H466.185ZM431.27 42.9101L471.492 2.52412L511.714 42.9101L471.492 83.2961L431.27 42.9101ZM417.025 536.236L366.468 586.999L372.054 592.608L366.468 598.217L417.025 648.98L467.582 598.217L461.995 592.608L467.582 586.999L417.025 536.236ZM463.112 598.217L417.025 644.493L370.937 598.217L374.289 594.852L417.025 637.762L459.761 594.852L463.112 598.217ZM376.803 592.608L417.025 552.222L457.247 592.608L417.025 632.994L376.803 592.608ZM459.761 590.364L417.025 547.454L374.289 590.364L370.937 586.999L417.025 540.723L463.112 586.999L459.761 590.364ZM592.158 492.765L586.572 487.156L536.015 537.919L586.572 588.682L592.158 583.073L597.745 588.682L648.302 537.919L597.745 487.156L592.158 492.765ZM586.572 583.914L540.484 537.638L586.572 491.363L589.924 494.728L547.188 537.638L589.924 580.548L586.572 583.914ZM551.657 537.919L591.879 497.533L632.101 537.919L591.879 578.305L551.657 537.919ZM597.745 583.914L594.393 580.548L637.129 537.638L594.393 494.728L597.745 491.363L643.832 537.638L597.745 583.914ZM225.411 93.673L230.998 88.0639L236.584 93.673L287.141 42.9101L244.126 0H239.656L282.392 42.9101L236.305 89.1857L232.953 85.8202L275.689 42.9101L233.232 0H228.204L185.468 42.9101L228.204 85.8202L224.853 89.1857L178.765 42.9101L222.339 0H217.87L175.134 42.9101L225.69 93.673H225.411ZM190.496 42.9101L230.998 2.52412L271.22 42.9101L230.998 83.2961L190.775 42.9101H190.496ZM351.384 118.914L345.798 113.305L295.241 164.068L345.798 214.831L351.384 209.222L356.971 214.831L407.528 164.068L356.971 113.305L351.384 118.914ZM345.798 210.063L299.71 163.788L345.798 117.512L349.15 120.877L306.414 163.788L349.15 206.698L345.798 210.063ZM310.883 163.788L351.105 123.402L391.327 163.788L351.105 204.174L310.883 163.788ZM356.971 210.063L353.619 206.698L396.355 163.788L353.619 120.877L356.971 117.512L403.059 163.788L356.971 210.063ZM417.025 165.47L467.582 114.707L461.995 109.098L467.582 103.489L417.025 52.7261L366.468 103.489L372.054 109.098L366.468 114.707L417.025 165.47ZM371.216 103.489L417.304 57.2135L463.392 103.489L460.04 106.855L417.304 63.9445L374.568 106.855L371.216 103.489ZM457.526 109.098L417.304 149.484L377.082 109.098L417.304 68.7122L457.526 109.098ZM374.568 111.342L417.304 154.252L460.04 111.342L463.392 114.707L417.304 160.983L371.216 114.707L374.568 111.342ZM0.27932 612.521V617.008L41.6187 658.516L0.27932 700.024V704.511L46.3671 658.235L0.27932 612.521ZM0.27932 129.011V133.498L41.6187 175.006L0.27932 216.794V221.281L46.3671 175.006L0.27932 129.011ZM296.638 286.348L347.195 235.585L341.608 229.976L347.195 224.367L296.638 173.604L246.081 224.367L251.667 229.976L246.081 235.585L296.638 286.348ZM250.829 224.367L296.917 178.091L343.005 224.367L339.653 227.732L296.917 184.822L254.181 227.732L250.829 224.367ZM337.139 229.976L296.917 270.362L256.695 229.976L296.917 189.59L337.139 229.976ZM254.181 232.219L296.917 275.129L339.653 232.219L343.005 235.585L296.917 281.86L250.829 235.585L254.181 232.219ZM110.611 341.037L116.197 346.646L166.754 295.883L116.197 245.12L110.611 250.73L105.024 245.12L54.4674 295.883L105.024 346.646L110.611 341.037ZM116.197 249.888L162.285 296.164L116.197 342.439L112.845 339.074L155.581 296.164L112.845 253.254L116.197 249.888ZM150.833 296.164L110.611 336.55L70.3886 296.164L110.611 255.778L150.833 296.164ZM105.024 249.888L108.376 253.254L65.6402 296.164L108.376 339.074L105.024 342.439L58.9365 296.164L105.024 249.888ZM657.798 294.481L607.242 345.244L612.828 350.853L607.242 356.462L657.798 407.225L708.355 356.462L702.769 350.853L708.355 345.244L657.798 294.481ZM703.886 356.462L657.798 402.738L611.711 356.462L615.062 353.097L657.798 396.007L700.534 353.097L703.886 356.462ZM617.576 350.853L657.798 310.467L698.02 350.853L657.798 391.239L617.576 350.853ZM700.534 348.609L657.798 305.699L615.062 348.609L611.711 345.244L657.798 298.968L703.886 345.244L700.534 348.609ZM537.412 286.348L587.968 235.585L582.382 229.976L587.968 224.367L537.412 173.604L486.855 224.367L492.441 229.976L486.855 235.585L537.412 286.348ZM491.603 224.367L537.691 178.091L583.779 224.367L580.427 227.732L537.691 184.822L494.955 227.732L491.603 224.367ZM577.913 229.976L537.691 270.362L497.469 229.976L537.691 189.59L577.913 229.976ZM494.955 232.219L537.691 275.129L580.427 232.219L583.779 235.585L537.691 281.86L491.603 235.585L494.955 232.219ZM55.864 286.348L106.421 235.585L100.834 229.976L106.421 224.367L55.864 173.604L5.5864 224.367L11.1728 229.976L5.5864 235.585L56.1433 286.348H55.864ZM10.0555 224.367L56.1433 178.091L102.231 224.367L98.8792 227.732L56.1433 184.822L13.4074 227.732L10.0555 224.367ZM96.3654 229.976L56.1433 270.362L15.9212 229.976L56.1433 189.59L96.3654 229.976ZM13.4074 232.219L56.1433 275.129L98.8792 232.219L102.231 235.585L56.1433 281.86L10.0555 235.585L13.4074 232.219ZM718.132 124.523L712.545 130.133L706.959 124.523L656.402 175.286L706.959 226.049L712.545 220.44L718.132 226.049L768.688 175.286L718.132 124.523ZM706.959 221.281L660.871 175.006L706.959 128.73L710.311 132.096L667.575 175.006L710.311 217.916L706.959 221.281ZM672.044 175.286L712.266 134.9L752.488 175.286L712.266 215.672L672.044 175.286ZM714.78 217.916L757.516 175.006L714.78 132.096L718.132 128.73L764.219 175.006L718.132 221.281L714.78 217.916ZM356.971 698.06L407.528 647.297L356.971 596.535L351.384 602.144L345.798 596.535L295.241 647.297L345.798 698.06L351.384 692.451L356.971 698.06ZM356.971 601.302L403.059 647.578L356.971 693.854L353.619 690.488L396.355 647.578L353.619 604.668L356.971 601.302ZM391.607 647.297L351.384 687.683L311.162 647.297L351.384 606.911L391.607 647.297ZM345.798 693.573L299.71 647.297L345.798 601.022L349.15 604.387L306.414 647.297L349.15 690.208L345.798 693.573ZM581.823 0H577.354L537.412 40.1055L497.469 0H493L537.412 44.5928L581.823 0ZM526.239 294.481L475.682 345.244L481.268 350.853L475.682 356.462L526.239 407.225L576.796 356.462L571.209 350.853L576.796 345.244L526.239 294.481ZM572.327 356.462L526.239 402.738L480.151 356.462L483.503 353.097L526.239 396.007L568.975 353.097L572.327 356.462ZM486.017 350.853L526.239 310.467L566.461 350.853L526.239 391.239L486.017 350.853ZM568.975 348.609L526.239 305.699L483.503 348.609L480.151 345.244L526.239 298.968L572.327 345.244L568.975 348.609ZM450.264 0H445.795L405.852 40.1055L365.909 0H361.44L405.852 44.5928L450.264 0ZM341.05 0H336.581L296.638 40.1055L256.974 0H252.505L296.917 44.5928L341.05 0ZM285.465 536.236L234.908 586.999L240.494 592.608L234.908 598.217L285.465 648.98L336.022 598.217L330.435 592.608L336.022 586.999L285.465 536.236ZM331.553 598.217L285.465 644.493L239.377 598.217L242.729 594.852L285.465 637.762L328.201 594.852L331.553 598.217ZM245.243 592.608L285.465 552.222L325.687 592.608L285.465 632.994L245.243 592.608ZM328.201 590.364L285.465 547.454L242.729 590.364L239.377 586.999L285.465 540.723L331.553 586.999L328.201 590.364ZM679.865 0H675.396L646.905 28.6067L618.414 0H613.945L647.184 33.3745L680.423 0H679.865ZM691.037 0H686.568L646.626 40.1055L606.683 0H602.214L646.626 44.5928L691.037 0ZM405.852 415.359L355.295 466.121L360.881 471.731L355.295 477.34L405.852 528.103L456.409 477.34L450.822 471.731L456.409 466.121L405.852 415.359ZM451.94 477.34L405.852 523.615L359.764 477.34L363.116 473.974L405.852 516.884L448.588 473.974L451.94 477.34ZM365.63 471.731L405.852 431.345L446.074 471.731L405.852 512.117L365.63 471.731ZM448.588 469.487L405.852 426.577L363.116 469.487L359.764 466.121L405.852 419.846L451.94 466.121L448.588 469.487ZM285.465 407.225L336.022 356.462L330.435 350.853L336.022 345.244L285.465 294.481L234.908 345.244L240.494 350.853L234.908 356.462L285.465 407.225ZM239.656 345.244L285.744 298.968L331.832 345.244L328.48 348.609L285.744 305.699L243.008 348.609L239.656 345.244ZM325.966 350.853L285.744 391.239L245.522 350.853L285.744 310.467L325.966 350.853ZM243.008 353.097L285.744 396.007L328.48 353.097L331.832 356.462L285.744 402.738L239.656 356.462L243.008 353.097ZM586.572 104.891L592.158 99.2822L597.745 104.891L648.302 54.1284L597.745 3.64596L592.158 9.25512L586.572 3.64596L536.015 54.4089L586.572 105.172V104.891ZM597.745 8.13329L643.832 54.4089L597.745 100.684L594.393 97.319L637.129 54.4089L594.393 11.4988L597.745 8.13329ZM632.38 54.4089L592.158 94.7949L551.936 54.4089L592.158 14.0229L632.38 54.4089ZM589.924 11.4988L547.188 54.4089L589.924 97.319L586.572 100.684L540.484 54.4089L586.572 8.13329L589.924 11.4988ZM439.091 0H434.622L406.131 28.6067L377.641 0H373.171L406.41 33.3745L439.65 0H439.091ZM657.798 165.47L708.355 114.707L702.769 109.098L708.355 103.489L657.798 52.7261L607.242 103.489L612.828 109.098L607.242 114.707L657.798 165.47ZM611.99 103.489L658.078 57.2135L704.166 103.489L700.814 106.855L658.078 63.9445L615.342 106.855L611.99 103.489ZM698.3 109.098L658.078 149.484L617.856 109.098L658.078 68.7122L698.3 109.098ZM615.342 111.342L658.078 154.252L700.814 111.342L704.166 114.707L658.078 160.983L611.99 114.707L615.342 111.342ZM405.852 286.348L456.409 235.585L450.822 229.976L456.409 224.367L405.852 173.604L355.295 224.367L360.881 229.976L355.295 235.585L405.852 286.348ZM360.043 224.367L406.131 178.091L451.94 224.367L448.588 227.732L405.852 184.822L363.116 227.732L359.764 224.367H360.043ZM446.353 229.976L406.131 270.362L365.909 229.976L406.131 189.59L446.353 229.976ZM363.395 232.219L406.131 275.129L448.867 232.219L452.219 235.585L406.41 281.86L360.323 235.585L363.675 232.219H363.395ZM570.651 0H566.182L537.691 28.6067L509.2 0H504.731L537.97 33.3745L571.209 0H570.651ZM329.877 0H325.408L296.917 28.6067L268.147 0H263.678L296.917 33.3745L329.877 0Z" fill="#E8B9AF" fill-opacity="0.1"/>
<path d="M805.279 433.588V429.101L828.742 405.543L805.279 381.984V377.497L833.211 405.543L805.279 433.588ZM897.455 703.67L891.868 709.279L841.312 658.516L891.868 607.753L897.455 613.362L903.041 607.753L953.598 658.516L903.041 709.279L897.455 703.67ZM891.868 612.521L845.781 658.796L891.868 705.072L895.22 701.706L852.484 658.796L895.22 615.886L891.868 612.521ZM857.233 658.516L897.455 698.902L937.677 658.516L897.455 618.13L857.233 658.516ZM903.041 612.521L899.689 615.886L942.425 658.796L899.689 701.706L903.041 705.072L949.129 658.796L903.041 612.521ZM1204.15 657.114L1254.71 707.876L1249.12 713.486L1254.71 719.095L1204.15 769.858L1153.59 719.095L1159.18 713.486L1153.59 707.876L1204.15 657.114ZM1158.06 719.095L1204.15 765.37L1250.24 719.095L1246.88 715.729L1204.15 758.639L1161.41 715.729L1158.06 719.095ZM1244.37 713.486L1204.15 673.1L1163.93 713.486L1204.15 753.872L1244.37 713.486ZM1161.41 711.242L1204.15 668.332L1246.88 711.242L1250.24 707.876L1204.15 661.601L1158.34 707.876L1161.69 711.242H1161.41ZM1083.76 536.236L1134.32 586.999L1128.73 592.608L1134.32 598.217L1083.76 648.98L1033.2 598.217L1038.79 592.608L1033.2 586.999L1083.76 536.236ZM1037.67 598.217L1083.76 644.493L1129.85 598.217L1126.5 594.852L1083.76 637.762L1041.03 594.852L1037.67 598.217ZM1123.98 592.608L1083.76 552.222L1043.54 592.608L1083.76 632.994L1123.98 592.608ZM1041.03 590.364L1083.76 547.454L1126.5 590.364L1129.85 586.999L1083.76 540.723L1037.67 586.999L1041.03 590.364ZM805.279 191.833V187.346L828.742 163.788L805.279 140.229V135.742L833.211 163.788L805.279 191.833ZM893.265 345.244L887.679 350.853L893.265 356.462L842.708 407.225L805 369.363V364.876L842.708 402.738L888.796 356.462L885.444 353.097L842.708 396.007L805 358.145V353.658L842.708 391.52L882.93 351.134L842.708 310.748L805 348.609V344.122L842.708 306.26L885.444 349.17L888.796 345.805L842.708 299.529L805 337.391V332.904L842.708 295.042L893.265 345.805V345.244ZM805.279 323.929V319.442L828.742 295.883L805.279 272.325V267.838L833.211 295.883L805.279 323.929ZM963.374 415.359L1013.93 466.121L1008.34 471.731L1013.93 477.34L963.374 528.103L912.817 477.34L918.404 471.731L912.817 466.121L963.374 415.359ZM917.287 477.34L963.374 523.615L1009.46 477.34L1006.11 473.974L963.374 516.884L920.638 473.974L917.287 477.34ZM1003.6 471.731L963.374 431.345L923.152 471.731L963.374 512.117L1003.6 471.731ZM920.638 469.487L963.374 426.577L1006.11 469.487L1009.46 466.121L963.374 419.846L917.287 466.121L920.638 469.487ZM1017.84 118.914L1023.43 113.305L1073.99 164.068L1023.43 214.831L1017.84 209.222L1012.26 214.831L961.698 164.068L1012.26 113.305L1017.84 118.914ZM1023.43 210.063L1069.52 163.788L1023.43 117.512L1020.08 120.877L1062.81 163.788L1020.08 206.698L1023.43 210.063ZM1058.34 163.788L1018.12 123.402L977.899 163.788L1018.12 204.174L1058.34 163.788ZM1012.26 210.063L1015.61 206.698L972.871 163.788L1015.61 120.877L1012.26 117.512L966.168 163.788L1012.26 210.063ZM805.279 675.343V670.856L828.742 647.297L805.279 623.739V619.252L833.211 647.297L805.279 675.343ZM882.092 224.367L876.506 229.976L882.092 235.585L831.535 286.348L805 259.704V255.217L831.535 281.86L877.623 235.585L874.271 232.219L831.535 275.129L805 248.486V243.999L831.535 270.642L871.757 230.256L831.535 189.87L805 216.514V212.026L831.535 185.383L874.271 228.293L877.623 224.927L831.535 178.652L805 205.295V200.808L831.535 174.165L882.092 224.927V224.367ZM1324.54 165.47L1273.98 114.707L1279.56 109.098L1273.98 103.489L1324.54 52.7261L1375.09 103.489L1369.51 109.098L1375.09 114.707L1324.54 165.47ZM1370.34 103.489L1324.26 57.2135L1278.17 103.489L1281.52 106.855L1324.26 63.9445L1366.99 106.855L1370.34 103.489ZM1284.03 109.098L1324.26 149.484L1364.48 109.098L1324.26 68.7122L1284.03 109.098ZM1366.99 111.342L1324.26 154.252L1281.52 111.342L1278.17 114.707L1324.26 160.983L1370.34 114.707L1366.99 111.342ZM805.279 554.466V549.979L817.569 537.638L805.279 525.298V520.811L822.039 537.638L805.279 554.466ZM1012.26 728.911L1017.84 734.52L1023.43 728.911L1073.99 779.674L1045.77 808H1041.3L1069.52 779.674L1023.43 733.398L1020.08 736.764L1062.81 779.674L1034.6 808H1030.13L1058.34 779.674L1018.12 739.288L977.899 779.674L1006.11 808H1001.64L973.43 779.674L1016.17 736.764L1012.81 733.398L966.726 779.674L994.938 808H990.468L962.257 779.674L1012.81 728.911H1012.26ZM805.279 82.4547V77.9674L828.742 54.4089L805.279 30.8504V26.3631L833.211 54.4089L805.279 82.4547ZM805.279 70.9559V66.4686L817.569 54.1284L805.279 41.7883V37.3009L822.039 54.1284L805.279 70.9559ZM805.279 422.37V417.883L817.569 405.543L805.279 393.202V388.715L822.039 405.543L805.279 422.37ZM1504.98 456.305L1499.39 450.696L1493.8 456.305L1443.25 405.543L1493.8 354.78L1499.39 360.389L1504.98 354.78L1555.53 405.543L1504.98 456.305ZM1493.8 359.547L1447.72 405.823L1493.8 452.099L1497.15 448.733L1454.42 405.823L1497.15 362.913L1493.8 359.547ZM1459.17 405.543L1499.39 445.928L1539.61 405.543L1499.39 365.157L1459.17 405.543ZM1504.98 359.547L1501.62 362.913L1544.36 405.823L1501.62 448.733L1504.98 452.099L1551.06 405.823L1504.98 359.547ZM903.041 93.673L897.455 88.0639L891.868 93.673L841.312 42.9101L884.048 0H888.517L845.781 42.9101L891.868 89.1857L895.22 85.8202L852.484 42.9101L895.22 0H900.248L942.984 42.9101L900.248 85.8202L903.6 89.1857L949.688 42.9101L906.952 0H911.421L954.157 42.9101L903.6 93.673H903.041ZM937.956 42.9101L897.734 2.52412L857.512 42.9101L897.734 83.2961L937.956 42.9101ZM805.279 312.711V308.224L817.569 295.883L805.279 283.543V279.056L822.039 295.883L805.279 312.711ZM1444.92 657.114L1495.48 707.876L1489.89 713.486L1495.48 719.095L1444.92 769.858L1394.37 719.095L1399.95 713.486L1394.37 707.876L1444.92 657.114ZM1398.83 719.095L1444.92 765.37L1491.01 719.095L1487.66 715.729L1444.92 758.639L1402.19 715.729L1398.83 719.095ZM1485.14 713.486L1444.92 673.1L1404.7 713.486L1444.92 753.872L1485.14 713.486ZM1402.19 711.242L1444.92 668.332L1487.66 711.242L1491.01 707.876L1444.92 661.601L1398.83 707.876L1402.19 711.242ZM1373.42 717.692L1379 723.302L1384.59 717.692L1435.15 768.455L1395.76 808H1391.29L1430.68 768.455L1384.59 722.18L1381.24 725.545L1423.97 768.455L1384.59 808H1380.12L1419.5 768.455L1379.28 728.069L1339.06 768.455L1378.44 808H1373.97L1334.59 768.455L1377.33 725.545L1373.97 722.18L1327.89 768.455L1367.27 808H1362.8L1323.42 768.455L1373.97 717.692H1373.42ZM805.279 180.615V176.128L817.569 163.788L805.279 151.447V146.96L822.039 163.788L805.279 180.615ZM1493.8 698.06L1443.25 647.297L1493.8 596.535L1499.39 602.144L1504.98 596.535L1555.53 647.297L1504.98 698.06L1499.39 692.451L1493.8 698.06ZM1493.8 601.302L1447.72 647.578L1493.8 693.854L1497.15 690.488L1454.42 647.578L1497.15 604.668L1493.8 601.302ZM1459.17 647.297L1499.39 687.683L1539.61 647.297L1499.39 606.911L1459.17 647.297ZM1504.98 693.573L1551.06 647.297L1504.98 601.022L1501.62 604.387L1544.36 647.297L1501.62 690.208L1504.98 693.573ZM1433.75 407.225L1383.19 356.462L1388.78 350.853L1383.19 345.244L1433.75 294.481L1484.31 345.244L1478.72 350.853L1484.31 356.462L1433.75 407.225ZM1479.56 345.244L1433.47 298.968L1387.38 345.244L1390.73 348.609L1433.47 305.699L1476.21 348.609L1479.56 345.244ZM1393.25 350.853L1433.47 391.239L1473.69 350.853L1433.47 310.467L1393.25 350.853ZM1476.21 353.097L1433.47 396.007L1390.73 353.097L1387.38 356.462L1433.47 402.738L1479.56 356.462L1476.21 353.097ZM1609.72 381.984V386.471L1579.55 416.761L1609.72 447.05V451.538L1574.81 416.48L1609.72 381.423V381.984ZM1554.14 528.103L1503.58 477.34L1509.17 471.731L1503.58 466.121L1554.14 415.359L1604.41 466.121L1598.83 471.731L1604.41 477.34L1553.86 528.103H1554.14ZM1599.94 466.121L1553.86 419.846L1507.77 466.121L1511.12 469.487L1553.86 426.577L1596.59 469.487L1599.94 466.121ZM1513.63 471.731L1553.86 512.117L1594.08 471.731L1553.86 431.345L1513.63 471.731ZM1596.59 473.974L1553.86 516.884L1511.12 473.974L1507.77 477.34L1553.86 523.615L1599.94 477.34L1596.59 473.974ZM1609.72 249.888V254.376L1579.55 284.665L1609.72 315.235V319.722L1574.81 284.945L1609.72 249.888ZM970.357 807.72H965.888L951.922 793.697L937.956 807.72H933.487L951.922 789.209L970.357 807.72ZM981.53 807.72H977.061L951.922 782.478L926.784 807.72H922.314L951.922 777.991L981.53 807.72ZM1609.72 491.643V496.13L1579.55 526.42L1609.72 556.709V561.197L1574.81 526.42L1609.72 491.363V491.643ZM1463.08 807.72H1458.61L1433.47 782.478L1408.33 807.72H1403.86L1433.47 777.991L1463.08 807.72ZM1609.72 480.425V484.912L1568.38 526.42L1609.72 567.928V572.415L1563.63 526.14L1609.72 480.425ZM1609.72 370.766V375.253L1568.38 416.761L1609.72 458.269V462.756L1563.63 416.48L1609.72 370.766ZM893.265 586.999L887.679 592.608L893.265 598.217L842.708 648.98L805 611.118V606.631L842.708 644.493L888.796 598.217L885.444 594.852L842.708 637.762L805 599.9V595.413L842.708 633.275L882.93 592.889L842.708 552.503L805 590.364V585.877L842.708 548.015L885.444 590.925L888.796 587.56L842.708 541.284L805 579.146V574.659L842.708 536.797L893.265 587.56V586.999ZM861.143 807.72H856.674L842.708 793.697L828.742 807.72H824.273L842.708 789.209L861.143 807.72ZM893.265 103.489L887.679 109.098L893.265 114.707L842.708 165.47L805 127.608V123.121L842.708 160.983L888.796 114.707L885.444 111.342L842.708 154.252L805 116.39V111.903L842.708 149.765L882.93 109.379L842.708 68.9927L805 106.855V102.367L842.708 64.5054L885.444 107.415L888.796 104.05L842.708 57.7744L805 95.6362V91.1489L842.708 53.287L893.265 104.05V103.489ZM891.868 717.692L897.455 723.302L903.041 717.692L953.598 768.455L914.214 808H909.745L949.129 768.455L903.041 722.18L899.689 725.545L942.425 768.455L903.041 808H898.572L937.956 768.455L897.734 728.069L857.512 768.455L896.896 808H892.427L853.043 768.455L895.779 725.545L892.427 722.18L846.339 768.455L885.723 808H881.254L841.87 768.455L892.427 717.692H891.868ZM1509.72 0H1514.19L1554.14 40.1055L1593.8 0H1598.27L1553.86 44.5928L1509.72 0ZM882.092 707.876L876.506 713.486L882.092 719.095L831.535 769.858L805 743.214V738.727L831.535 765.37L877.623 719.095L874.271 715.729L831.535 758.639L805 731.996V727.508L831.535 754.152L871.757 713.766L831.535 673.38L805 700.024V695.536L831.535 668.893L874.271 711.803L877.623 708.437L831.535 662.162L805 688.805V684.318L831.535 657.674L882.092 708.437V707.876ZM1411.68 0H1416.15L1444.64 28.6067L1473.41 0H1477.88L1444.64 33.3745L1411.68 0ZM1493.8 728.911L1499.39 734.52L1504.98 728.911L1555.53 779.674L1527.32 808H1522.85L1551.06 779.674L1504.98 733.398L1501.62 736.764L1544.36 779.674L1516.15 808H1511.68L1539.89 779.674L1499.67 739.288L1459.45 779.674L1487.66 808H1483.19L1454.98 779.674L1497.71 736.764L1494.36 733.398L1448.27 779.674L1476.49 808H1472.02L1443.8 779.674L1494.36 728.911H1493.8ZM1433.75 165.47L1383.19 114.707L1388.78 109.098L1383.19 103.489L1433.75 52.7261L1484.31 103.489L1478.72 109.098L1484.31 114.707L1433.75 165.47ZM1479.56 103.489L1433.47 57.2135L1387.38 103.489L1390.73 106.855L1433.47 63.9445L1476.21 106.855L1479.56 103.489ZM1393.25 109.098L1433.47 149.484L1473.69 109.098L1433.47 68.7122L1393.25 109.098ZM1476.21 111.342L1433.47 154.252L1390.73 111.342L1387.38 114.707L1433.47 160.983L1479.56 114.707L1476.21 111.342ZM1554.14 657.114L1604.41 707.876L1598.83 713.486L1604.41 719.095L1553.86 769.858L1503.3 719.095L1508.89 713.486L1503.3 707.876L1553.86 657.114H1554.14ZM1508.05 719.095L1554.14 765.37L1600.22 719.095L1596.87 715.729L1554.14 758.639L1511.4 715.729L1508.05 719.095ZM1594.36 713.486L1554.14 673.1L1513.91 713.486L1554.14 753.872L1594.36 713.486ZM1511.4 711.242L1554.14 668.332L1596.87 711.242L1600.22 707.876L1554.14 661.601L1508.05 707.876L1511.4 711.242ZM831.815 28.6067L860.585 0H865.054L831.815 33.3745L805.279 6.731V2.24367L831.815 28.8872V28.6067ZM871.478 0H875.947L831.535 44.5928L805 17.9493V13.462L831.535 40.1055L871.478 0ZM805.279 796.221V791.733L817.569 779.393L805.279 767.053V762.566L822.039 779.393L805.279 796.221ZM1606.65 0H1609.72V1.40229L1568.38 42.9101L1609.72 84.6984V89.1857L1563.63 42.9101L1606.65 0ZM872.595 807.72H868.126L842.987 782.478L817.849 807.72H813.38L842.987 777.991L872.595 807.72ZM963.374 657.114L1013.93 707.876L1008.34 713.486L1013.93 719.095L963.374 769.858L912.817 719.095L918.404 713.486L912.817 707.876L963.374 657.114ZM917.287 719.095L963.374 765.37L1009.46 719.095L1006.11 715.729L963.374 758.639L920.638 715.729L917.287 719.095ZM1003.6 713.486L963.374 673.1L923.152 713.486L963.374 753.872L1003.6 713.486ZM920.638 711.242L963.374 668.332L1006.11 711.242L1009.46 707.876L963.374 661.601L917.287 707.876L920.638 711.242ZM805.279 807.439V802.952L828.742 779.393L805.279 755.835V751.347L833.211 779.393L805.279 807.439ZM1520.9 0H1525.37L1553.86 28.6067L1582.63 0H1587.1L1553.86 33.3745L1520.9 0ZM1609.72 8.13329V12.6206L1579.55 42.9101L1609.72 73.48V77.9674L1574.81 42.9101L1609.72 8.13329ZM841.591 284.665L892.148 233.902L897.734 239.511L903.321 233.902L953.878 284.665L903.321 335.428L897.734 329.819L892.148 335.428L841.591 284.665ZM903.041 330.941L949.129 284.665L903.041 238.389L899.689 241.755L942.425 284.665L899.689 327.575L903.041 330.941ZM937.956 284.665L897.734 244.279L857.512 284.665L897.734 325.051L937.956 284.665ZM852.764 284.665L895.5 241.755L892.148 238.389L846.06 284.665L892.148 330.941L895.5 327.575L852.764 284.665ZM1609.72 140.229V144.716L1579.55 175.006L1609.72 205.576V210.063L1574.81 175.006L1609.72 140.229ZM1609.72 238.67V243.157L1568.38 284.665L1609.72 326.453V330.941L1563.63 284.665L1609.72 238.67ZM1504.98 104.891L1499.39 99.2822L1493.8 104.891L1443.25 54.1284L1493.8 3.64596L1499.39 9.25512L1504.98 3.64596L1555.53 54.4089L1504.98 105.172V104.891ZM1493.8 8.13329L1447.72 54.4089L1493.8 100.684L1497.15 97.319L1454.42 54.4089L1497.15 11.4988L1493.8 8.13329ZM1459.17 54.4089L1499.39 94.7949L1539.61 54.4089L1499.39 14.0229L1459.17 54.4089ZM1501.62 11.4988L1544.36 54.4089L1501.62 97.319L1504.98 100.684L1551.06 54.4089L1504.98 8.13329L1501.62 11.4988ZM1514.75 598.217L1520.34 592.608L1514.75 586.999L1565.31 536.236L1609.72 580.829V585.316L1565.31 540.723L1519.22 586.999L1522.57 590.364L1565.31 547.454L1608.04 590.364L1610 588.401V596.815L1608.04 594.852L1565.31 637.762L1522.57 594.852L1519.22 598.217L1565.31 644.493L1609.72 599.9V604.387L1565.31 648.98L1514.75 598.217ZM1565.31 632.994L1605.53 592.608L1565.31 552.222L1525.09 592.608L1565.31 632.994ZM1609.72 623.739V628.226L1579.55 658.516L1609.72 688.805V693.293L1574.81 658.235L1609.72 623.178V623.739ZM805.279 664.125V659.638L817.569 647.297L805.279 634.957V630.47L822.039 647.297L805.279 664.125ZM1444.92 286.348L1394.37 235.585L1399.95 229.976L1394.37 224.367L1444.92 173.604L1495.48 224.367L1489.89 229.976L1495.48 235.585L1444.92 286.348ZM1490.73 224.367L1444.64 178.091L1398.55 224.367L1401.91 227.732L1444.64 184.822L1487.38 227.732L1490.73 224.367ZM1404.42 229.976L1444.64 270.362L1484.86 229.976L1444.64 189.59L1404.42 229.976ZM1487.38 232.219L1444.64 275.129L1401.91 232.219L1398.55 235.585L1444.64 281.86L1490.73 235.585L1487.38 232.219ZM1400.51 0H1404.98L1444.92 40.1055L1484.59 0H1489.05L1444.64 44.5928L1400.51 0ZM1594.64 807.72H1590.17L1565.03 782.478L1539.89 807.72H1535.42L1565.03 777.991L1594.64 807.72ZM952.202 536.236L1002.76 586.999L997.172 592.608L1002.76 598.217L952.202 648.98L901.645 598.217L907.231 592.608L901.645 586.999L952.202 536.236ZM906.114 598.217L952.202 644.493L998.289 598.217L994.938 594.852L952.202 637.762L909.466 594.852L906.114 598.217ZM992.424 592.608L952.202 552.222L911.98 592.608L952.202 632.994L992.424 592.608ZM909.466 590.364L952.202 547.454L994.938 590.364L998.289 586.999L952.202 540.723L906.114 586.999L909.466 590.364ZM1609.72 722.18V726.667L1568.38 768.175L1607.77 807.72H1603.3L1563.91 768.175L1609.72 722.18ZM1583.46 807.72H1579L1565.03 793.697L1551.06 807.72H1546.59L1565.03 789.209L1583.46 807.72ZM1514.75 114.707L1520.34 109.098L1514.75 103.489L1565.31 52.7261L1609.72 97.5994V102.087L1565.31 57.4939L1519.22 103.77L1522.57 107.135L1565.31 64.2249L1607.77 106.855L1609.72 104.891V113.305L1607.77 111.342L1565.03 154.252L1522.29 111.342L1518.94 114.707L1565.03 160.983L1609.72 116.11V120.597L1565.31 165.19L1514.75 114.427V114.707ZM1565.31 149.484L1605.53 109.098L1565.31 68.7122L1525.09 109.098L1565.31 149.484ZM1143.82 124.523L1194.37 175.286L1143.82 226.049L1138.23 220.44L1132.64 226.049L1082.09 175.286L1132.64 124.523L1138.23 130.133L1143.82 124.523ZM1143.82 221.281L1189.9 175.006L1143.82 128.73L1140.46 132.096L1183.2 175.006L1140.46 217.916L1143.82 221.281ZM1178.73 175.286L1138.51 134.9L1098.29 175.286L1138.51 215.672L1178.73 175.286ZM1132.64 129.011L1086.55 175.286L1132.64 221.562L1135.99 218.196L1093.26 175.286L1135.99 132.376L1132.64 129.011ZM1072.59 657.114L1123.15 707.876L1117.56 713.486L1123.15 719.095L1072.59 769.858L1022.03 719.095L1027.62 713.486L1022.03 707.876L1072.59 657.114ZM1026.5 719.095L1072.59 765.37L1118.68 719.095L1115.32 715.729L1072.59 758.639L1029.85 715.729L1026.5 719.095ZM1112.81 713.486L1072.59 673.1L1032.37 713.486L1072.59 753.872L1112.81 713.486ZM1029.85 711.242L1072.59 668.332L1115.32 711.242L1118.68 707.876L1072.59 661.601L1026.5 707.876L1029.85 711.242ZM1609.72 733.398V737.885L1579.55 768.175L1609.72 798.464V802.952L1574.81 767.894L1609.72 732.837V733.398ZM1138.23 703.67L1132.64 709.279L1082.09 658.516L1132.64 607.753L1138.23 613.362L1143.82 607.753L1194.37 658.516L1143.82 709.279L1138.23 703.67ZM1132.64 612.521L1086.55 658.796L1132.64 705.072L1135.99 701.706L1093.26 658.796L1135.99 615.886L1132.64 612.521ZM1098.01 658.516L1138.23 698.902L1178.45 658.516L1138.23 618.13L1098.01 658.516ZM1143.82 612.521L1140.46 615.886L1183.2 658.796L1140.46 701.706L1143.82 705.072L1189.9 658.796L1143.82 612.521ZM1138.23 239.792L1143.82 234.183L1194.37 284.945L1143.82 335.708L1138.23 330.099L1132.64 335.708L1082.09 284.945L1132.64 234.183L1138.23 239.792ZM1143.82 330.941L1189.9 284.665L1143.82 238.389L1140.46 241.755L1183.2 284.665L1140.46 327.575L1143.82 330.941ZM1178.73 284.665L1138.51 244.279L1098.29 284.665L1138.51 325.051L1178.73 284.665ZM1132.64 330.941L1135.99 327.575L1093.26 284.665L1135.99 241.755L1132.64 238.389L1086.55 284.665L1132.64 330.941ZM1138.23 371.888L1143.82 366.278L1194.37 417.041L1143.82 467.804L1138.23 462.195L1132.64 467.804L1082.09 417.041L1132.64 366.278L1138.23 371.888ZM1143.82 463.036L1189.9 416.761L1143.82 370.485L1140.46 373.851L1183.2 416.761L1140.46 459.671L1143.82 463.036ZM1178.73 417.041L1138.51 376.655L1098.29 417.041L1138.51 457.427L1178.73 417.041ZM1132.64 463.036L1135.99 459.671L1093.26 416.761L1135.99 373.851L1132.64 370.485L1086.55 416.761L1132.64 463.036ZM1264.2 104.891L1258.62 99.2822L1253.03 104.891L1202.47 54.1284L1253.03 3.64596L1258.62 9.25512L1264.2 3.64596L1314.76 54.4089L1264.2 105.172V104.891ZM1253.03 8.13329L1206.94 54.4089L1253.03 100.684L1256.38 97.319L1213.65 54.4089L1256.38 11.4988L1253.03 8.13329ZM1218.39 54.4089L1258.62 94.7949L1298.84 54.4089L1258.62 14.0229L1218.39 54.4089ZM1260.85 11.4988L1303.59 54.4089L1260.85 97.319L1264.2 100.684L1310.29 54.4089L1264.2 8.13329L1260.85 11.4988ZM1373.42 577.183L1322.86 526.42L1373.42 475.657L1379 481.266L1384.59 475.657L1435.15 526.42L1384.59 577.183L1379 571.574L1373.42 577.183ZM1373.42 480.425L1327.33 526.7L1373.42 572.976L1376.77 569.611L1334.03 526.7L1376.77 483.79L1373.42 480.425ZM1338.78 526.42L1379 566.806L1419.22 526.42L1379 486.034L1338.78 526.42ZM1384.59 572.696L1430.68 526.42L1384.59 480.144L1381.24 483.51L1423.97 526.42L1381.24 569.33L1384.59 572.696ZM1132.64 717.692L1138.23 723.302L1143.82 717.692L1194.37 768.455L1154.99 808H1150.52L1189.9 768.455L1143.82 722.18L1140.46 725.545L1183.2 768.455L1143.82 808H1139.35L1178.73 768.455L1138.51 728.069L1098.29 768.455L1137.67 808H1133.2L1093.82 768.455L1136.55 725.545L1133.2 722.18L1087.11 768.175L1126.5 807.72H1122.03L1082.64 768.175L1133.2 717.412L1132.64 717.692ZM1113.37 807.72H1108.9L1083.76 782.478L1058.62 807.72H1054.15L1083.76 777.991L1113.37 807.72ZM1264.2 245.401L1314.76 296.164L1264.2 346.927L1258.62 341.318L1253.03 346.927L1202.47 296.164L1253.03 245.401L1258.62 251.01L1264.2 245.401ZM1264.2 342.159L1310.29 295.883L1264.2 249.608L1260.85 252.973L1303.59 295.883L1260.85 338.793L1264.2 342.159ZM1299.12 296.164L1258.89 255.778L1218.67 296.164L1258.89 336.55L1299.12 296.164ZM1253.03 249.888L1206.94 296.164L1253.03 342.439L1256.38 339.074L1213.65 296.164L1256.38 253.254L1253.03 249.888ZM1451.9 807.72H1447.44L1433.47 793.697L1419.5 807.72H1415.03L1433.47 789.209L1451.9 807.72ZM1192.98 407.225L1142.42 356.462L1148 350.853L1142.42 345.244L1192.98 294.481L1243.53 345.244L1237.95 350.853L1243.53 356.462L1192.98 407.225ZM1238.78 345.244L1192.7 298.968L1146.61 345.244L1149.96 348.609L1192.7 305.699L1235.43 348.609L1238.78 345.244ZM1152.47 350.853L1192.7 391.239L1232.92 350.853L1192.7 310.467L1152.47 350.853ZM1235.43 353.097L1192.7 396.007L1149.96 353.097L1146.61 356.462L1192.7 402.738L1238.78 356.462L1235.43 353.097ZM1012.26 698.06L961.698 647.297L1012.26 596.535L1017.84 602.144L1023.43 596.535L1073.99 647.297L1023.43 698.06L1017.84 692.451L1012.26 698.06ZM1012.26 601.302L966.168 647.578L1012.26 693.854L1015.61 690.488L972.871 647.578L1015.61 604.668L1012.26 601.302ZM1023.43 693.573L1069.52 647.297L1023.43 601.022L1020.08 604.387L1062.81 647.297L1020.08 690.208L1023.43 693.573ZM1058.34 647.297L1018.12 606.911L977.899 647.297L1018.12 687.683L1058.34 647.297ZM841.591 526.42L892.148 475.657L897.734 481.266L903.321 475.657L953.878 526.42L903.321 577.183L897.734 571.574L892.148 577.183L841.591 526.42ZM903.041 572.696L949.129 526.42L903.041 480.144L899.689 483.51L942.425 526.42L899.689 569.33L903.041 572.696ZM937.956 526.42L897.734 486.034L857.512 526.42L897.734 566.806L937.956 526.42ZM852.764 526.42L895.5 483.51L892.148 480.144L846.06 526.42L892.148 572.696L895.5 569.33L852.764 526.42ZM882.092 466.121L876.506 471.731L882.092 477.34L831.535 528.103L805 501.459V496.972L831.535 523.615L877.623 477.34L874.271 473.974L831.535 516.884L805 490.241V485.754L831.535 512.397L871.757 472.011L831.535 431.625L805 458.269V453.781L831.535 427.138L874.271 470.048L877.623 466.682L831.535 420.407L805 447.05V442.563L831.535 415.919L882.092 466.682V466.121ZM1354.14 807.72H1349.67L1324.54 782.478L1299.4 807.72H1294.93L1324.54 777.991L1354.14 807.72ZM1499.39 582.792L1493.8 588.401L1443.25 537.638L1493.8 486.875L1499.39 492.485L1504.98 486.875L1555.53 537.638L1504.98 588.401L1499.39 582.792ZM1493.8 491.643L1447.72 537.919L1493.8 584.194L1497.15 580.829L1454.42 537.919L1497.15 495.009L1493.8 491.643ZM1459.17 537.919L1499.39 578.305L1539.61 537.919L1499.39 497.533L1459.17 537.919ZM1504.98 491.643L1501.62 495.009L1544.36 537.919L1501.62 580.829L1504.98 584.194L1551.06 537.919L1504.98 491.643ZM1253.03 456.305L1202.47 405.543L1253.03 354.78L1258.62 360.389L1264.2 354.78L1314.76 405.543L1264.2 456.305L1258.62 450.696L1253.03 456.305ZM1253.03 359.547L1206.94 405.823L1253.03 452.099L1256.38 448.733L1213.65 405.823L1256.38 362.913L1253.03 359.547ZM1218.39 405.543L1258.62 445.928L1298.84 405.543L1258.62 365.157L1218.39 405.543ZM1264.2 451.818L1310.29 405.543L1264.2 359.267L1260.85 362.632L1303.59 405.543L1260.85 448.453L1264.2 451.818ZM1017.84 251.01L1023.43 245.401L1073.99 296.164L1023.43 346.927L1017.84 341.318L1012.26 346.927L961.698 296.164L1012.26 245.401L1017.84 251.01ZM1023.43 342.159L1069.52 295.883L1023.43 249.608L1020.08 252.973L1062.81 295.883L1020.08 338.793L1023.43 342.159ZM1058.34 296.164L1018.12 255.778L977.899 296.164L1018.12 336.55L1058.34 296.164ZM1012.26 342.159L1015.61 338.793L972.871 295.883L1015.61 252.973L1012.26 249.608L966.168 295.883L1012.26 342.159ZM963.374 173.604L1013.93 224.367L1008.34 229.976L1013.93 235.585L963.374 286.348L912.817 235.585L918.404 229.976L912.817 224.367L963.374 173.604ZM917.287 235.585L963.374 281.86L1009.46 235.585L1006.11 232.219L963.374 275.129L920.638 232.219L917.287 235.585ZM1003.6 229.976L963.374 189.59L923.152 229.976L963.374 270.362L1003.6 229.976ZM920.638 227.732L963.374 184.822L1006.11 227.732L1009.46 224.367L963.374 178.091L917.287 224.367L920.638 227.732ZM1342.69 807.72H1338.22L1324.26 793.697L1310.29 807.72H1305.82L1324.26 789.209L1342.69 807.72ZM1132.64 577.183L1082.09 526.42L1132.64 475.657L1138.23 481.266L1143.82 475.657L1194.37 526.42L1143.82 577.183L1138.23 571.574L1132.64 577.183ZM1132.64 480.425L1086.55 526.7L1132.64 572.976L1135.99 569.611L1093.26 526.7L1135.99 483.79L1132.64 480.425ZM1098.01 526.42L1138.23 566.806L1178.45 526.42L1138.23 486.034L1098.01 526.42ZM1143.82 572.696L1189.9 526.42L1143.82 480.144L1140.46 483.51L1183.2 526.42L1140.46 569.33L1143.82 572.696ZM1379 703.67L1373.42 709.279L1322.86 658.516L1373.42 607.753L1379 613.362L1384.59 607.753L1435.15 658.516L1384.59 709.279L1379 703.67ZM1373.42 612.521L1327.33 658.796L1373.42 705.072L1376.77 701.706L1334.03 658.796L1376.77 615.886L1373.42 612.521ZM1338.78 658.516L1379 698.902L1419.22 658.516L1379 618.13L1338.78 658.516ZM1384.59 612.521L1381.24 615.886L1423.97 658.796L1381.24 701.706L1384.59 705.072L1430.68 658.796L1384.59 612.521ZM1444.92 528.103L1394.37 477.34L1399.95 471.731L1394.37 466.121L1444.92 415.359L1495.48 466.121L1489.89 471.731L1495.48 477.34L1444.92 528.103ZM1490.73 466.121L1444.64 419.846L1398.55 466.121L1401.91 469.487L1444.64 426.577L1487.38 469.487L1490.73 466.121ZM1404.42 471.731L1444.64 512.117L1484.86 471.731L1444.64 431.345L1404.42 471.731ZM1487.38 473.974L1444.64 516.884L1401.91 473.974L1398.55 477.34L1444.64 523.615L1490.73 477.34L1487.38 473.974ZM1258.62 582.792L1253.03 588.401L1202.47 537.638L1253.03 486.875L1258.62 492.485L1264.2 486.875L1314.76 537.638L1264.2 588.401L1258.62 582.792ZM1253.03 491.643L1206.94 537.919L1253.03 584.194L1256.38 580.829L1213.65 537.919L1256.38 495.009L1253.03 491.643ZM1218.39 537.919L1258.62 578.305L1298.84 537.919L1258.62 497.533L1218.39 537.919ZM1264.2 491.643L1260.85 495.009L1303.59 537.919L1260.85 580.829L1264.2 584.194L1310.29 537.919L1264.2 491.643ZM1514.75 356.462L1520.34 350.853L1514.75 345.244L1565.31 294.481L1609.72 339.354V343.842L1565.31 299.249L1519.22 345.524L1522.57 348.89L1565.31 305.98L1607.77 348.609L1609.72 346.646V355.06L1607.77 353.097L1565.03 396.007L1522.29 353.097L1518.94 356.462L1565.03 402.738L1609.72 357.865V362.352L1565.31 406.945L1514.75 356.182V356.462ZM1565.31 391.239L1605.53 350.853L1565.31 310.467L1525.09 350.853L1565.31 391.239ZM1384.59 124.523L1435.15 175.286L1384.59 226.049L1379 220.44L1373.42 226.049L1322.86 175.286L1373.42 124.523L1379 130.133L1384.59 124.523ZM1384.59 221.281L1430.68 175.006L1384.59 128.73L1381.24 132.096L1423.97 175.006L1381.24 217.916L1384.59 221.281ZM1419.5 175.286L1379.28 134.9L1339.06 175.286L1379.28 215.672L1419.5 175.286ZM1373.42 129.011L1327.33 175.286L1373.42 221.562L1376.77 218.196L1334.03 175.286L1376.77 132.376L1373.42 129.011ZM1433.75 536.236L1484.31 586.999L1478.72 592.608L1484.31 598.217L1433.75 648.98L1383.19 598.217L1388.78 592.608L1383.19 586.999L1433.75 536.236ZM1387.66 598.217L1433.75 644.493L1479.84 598.217L1476.49 594.852L1433.75 637.762L1391.01 594.852L1387.66 598.217ZM1473.97 592.608L1433.75 552.222L1393.53 592.608L1433.75 632.994L1473.97 592.608ZM1391.01 590.364L1433.75 547.454L1476.49 590.364L1479.84 586.999L1433.75 540.723L1387.66 586.999L1391.01 590.364ZM1379 329.819L1373.42 335.428L1322.86 284.665L1373.42 233.902L1379 239.511L1384.59 233.902L1435.15 284.665L1384.59 335.428L1379 329.819ZM1373.42 238.67L1327.33 284.945L1373.42 331.221L1376.77 327.856L1334.03 284.945L1376.77 242.035L1373.42 238.67ZM1338.78 284.665L1379 325.051L1419.22 284.665L1379 244.279L1338.78 284.665ZM1384.59 238.67L1381.24 242.035L1423.97 284.945L1381.24 327.856L1384.59 331.221L1430.68 284.945L1384.59 238.67ZM1253.03 728.911L1258.62 734.52L1264.2 728.911L1314.76 779.674L1286.55 808H1282.08L1310.29 779.674L1264.2 733.398L1260.85 736.764L1303.59 779.674L1275.37 808H1270.91L1299.12 779.674L1258.89 739.288L1218.67 779.674L1246.88 808H1242.41L1214.2 779.674L1256.94 736.764L1253.59 733.398L1207.5 779.674L1235.71 808H1231.24L1203.03 779.674L1253.59 728.911H1253.03ZM1379 461.915L1373.42 467.524L1322.86 416.761L1373.42 365.998L1379 371.607L1384.59 365.998L1435.15 416.761L1384.59 467.524L1379 461.915ZM1373.42 370.766L1327.33 417.041L1373.42 463.317L1376.77 459.951L1334.03 417.041L1376.77 374.131L1373.42 370.766ZM1338.78 417.041L1379 457.427L1419.22 417.041L1379 376.655L1338.78 417.041ZM1384.59 370.766L1381.24 374.131L1423.97 417.041L1381.24 459.951L1384.59 463.317L1430.68 417.041L1384.59 370.766ZM805.279 565.684V561.197L828.742 537.638L805.279 514.08V509.592L833.211 537.638L805.279 565.684ZM1101.92 807.72H1097.45L1083.48 793.697L1069.52 807.72H1065.05L1083.48 789.209L1101.92 807.72ZM1211.13 807.72H1206.66L1192.7 793.697L1178.73 807.72H1174.26L1192.7 789.209L1211.13 807.72ZM1313.36 415.359L1363.92 466.121L1358.33 471.731L1363.92 477.34L1313.36 528.103L1262.81 477.34L1268.39 471.731L1262.81 466.121L1313.36 415.359ZM1267.27 477.34L1313.36 523.615L1359.45 477.34L1356.1 473.974L1313.36 516.884L1270.63 473.974L1267.27 477.34ZM1353.58 471.731L1313.36 431.345L1273.14 471.731L1313.36 512.117L1353.58 471.731ZM1270.63 469.487L1313.36 426.577L1356.1 469.487L1359.45 466.121L1313.36 419.846L1267.27 466.121L1270.63 469.487ZM1222.3 807.72H1217.83L1192.7 782.478L1167.56 807.72H1163.09L1192.7 777.991L1222.3 807.72ZM1313.36 657.114L1363.92 707.876L1358.33 713.486L1363.92 719.095L1313.36 769.858L1262.81 719.095L1268.39 713.486L1262.81 707.876L1313.36 657.114ZM1267.27 719.095L1313.36 765.37L1359.45 719.095L1356.1 715.729L1313.36 758.639L1270.63 715.729L1267.27 719.095ZM1353.58 713.486L1313.36 673.1L1273.14 713.486L1313.36 753.872L1353.58 713.486ZM1270.63 711.242L1313.36 668.332L1356.1 711.242L1359.45 707.876L1313.36 661.601L1267.27 707.876L1270.63 711.242ZM1083.76 165.47L1033.2 114.707L1038.79 109.098L1033.2 103.489L1083.76 52.7261L1134.32 103.489L1128.73 109.098L1134.32 114.707L1083.76 165.47ZM1129.57 103.489L1083.48 57.2135L1037.39 103.489L1040.75 106.855L1083.48 63.9445L1126.22 106.855L1129.57 103.489ZM1043.26 109.098L1083.48 149.484L1123.7 109.098L1083.48 68.7122L1043.26 109.098ZM1126.22 111.342L1083.48 154.252L1040.75 111.342L1037.39 114.707L1083.48 160.983L1129.57 114.707L1126.22 111.342ZM1017.84 360.669L1023.43 355.06L1073.99 405.823L1023.43 456.586L1017.84 450.977L1012.26 456.586L961.698 405.823L1012.26 355.06L1017.84 360.669ZM1023.43 451.818L1069.52 405.543L1023.43 359.267L1020.08 362.632L1062.81 405.543L1020.08 448.453L1023.43 451.818ZM1058.34 405.543L1018.12 365.157L977.899 405.543L1018.12 445.928L1058.34 405.543ZM1012.26 451.818L1015.61 448.453L972.871 405.543L1015.61 362.632L1012.26 359.267L966.168 405.543L1012.26 451.818ZM891.868 366.278L897.455 371.888L903.041 366.278L953.598 417.041L903.041 467.804L897.455 462.195L891.868 467.804L841.312 417.041L891.868 366.278ZM903.041 463.036L949.129 416.761L903.041 370.485L899.689 373.851L942.425 416.761L899.689 459.671L903.041 463.036ZM937.956 417.041L897.734 376.655L857.512 417.041L897.734 457.427L937.956 417.041ZM895.22 459.671L852.484 416.761L895.22 373.851L891.868 370.485L845.781 416.761L891.868 463.036L895.22 459.671ZM1072.59 415.359L1123.15 466.121L1117.56 471.731L1123.15 477.34L1072.59 528.103L1022.03 477.34L1027.62 471.731L1022.03 466.121L1072.59 415.359ZM1026.5 477.34L1072.59 523.615L1118.68 477.34L1115.32 473.974L1072.59 516.884L1029.85 473.974L1026.5 477.34ZM1112.81 471.731L1072.59 431.345L1032.37 471.731L1072.59 512.117L1112.81 471.731ZM1029.85 469.487L1072.59 426.577L1115.32 469.487L1118.68 466.121L1072.59 419.846L1026.5 466.121L1029.85 469.487ZM1499.39 118.914L1504.98 113.305L1555.53 164.068L1504.98 214.831L1499.39 209.222L1493.8 214.831L1443.25 164.068L1493.8 113.305L1499.39 118.914ZM1504.98 210.063L1551.06 163.788L1504.98 117.512L1501.62 120.877L1544.36 163.788L1501.62 206.698L1504.98 210.063ZM1539.89 163.788L1499.67 123.402L1459.45 163.788L1499.67 204.174L1539.89 163.788ZM1493.8 210.063L1497.15 206.698L1454.42 163.788L1497.15 120.877L1493.8 117.512L1447.72 163.788L1493.8 210.063ZM1143.82 93.673L1138.23 88.0639L1132.64 93.673L1082.09 42.9101L1124.82 0H1129.29L1086.55 42.9101L1132.64 89.1857L1135.99 85.8202L1093.26 42.9101L1135.99 0H1141.02L1183.76 42.9101L1141.02 85.8202L1144.37 89.1857L1190.46 42.9101L1147.73 0H1152.19L1194.93 42.9101L1144.37 93.673H1143.82ZM1178.73 42.9101L1138.51 2.52412L1098.29 42.9101L1138.51 83.2961L1178.73 42.9101ZM1192.98 536.236L1243.53 586.999L1237.95 592.608L1243.53 598.217L1192.98 648.98L1142.42 598.217L1148 592.608L1142.42 586.999L1192.98 536.236ZM1146.89 598.217L1192.98 644.493L1239.06 598.217L1235.71 594.852L1192.98 637.762L1150.24 594.852L1146.89 598.217ZM1233.2 592.608L1192.98 552.222L1152.75 592.608L1192.98 632.994L1233.2 592.608ZM1150.24 590.364L1192.98 547.454L1235.71 590.364L1239.06 586.999L1192.98 540.723L1146.89 586.999L1150.24 590.364ZM1017.84 492.765L1023.43 487.156L1073.99 537.919L1023.43 588.682L1017.84 583.073L1012.26 588.682L961.698 537.919L1012.26 487.156L1017.84 492.765ZM1023.43 583.914L1069.52 537.638L1023.43 491.363L1020.08 494.728L1062.81 537.638L1020.08 580.548L1023.43 583.914ZM1058.34 537.919L1018.12 497.533L977.899 537.919L1018.12 578.305L1058.34 537.919ZM1012.26 583.914L1015.61 580.548L972.871 537.638L1015.61 494.728L1012.26 491.363L966.168 537.638L1012.26 583.914ZM1384.59 93.673L1379 88.0639L1373.42 93.673L1322.86 42.9101L1365.87 0H1370.34L1327.61 42.9101L1373.7 89.1857L1377.05 85.8202L1334.31 42.9101L1376.77 0H1381.8L1424.53 42.9101L1381.8 85.8202L1385.15 89.1857L1431.24 42.9101L1387.66 0H1392.13L1434.87 42.9101L1384.31 93.673H1384.59ZM1419.5 42.9101L1379 2.52412L1338.78 42.9101L1379 83.2961L1419.22 42.9101H1419.5ZM1258.62 118.914L1264.2 113.305L1314.76 164.068L1264.2 214.831L1258.62 209.222L1253.03 214.831L1202.47 164.068L1253.03 113.305L1258.62 118.914ZM1264.2 210.063L1310.29 163.788L1264.2 117.512L1260.85 120.877L1303.59 163.788L1260.85 206.698L1264.2 210.063ZM1299.12 163.788L1258.89 123.402L1218.67 163.788L1258.89 204.174L1299.12 163.788ZM1253.03 210.063L1256.38 206.698L1213.65 163.788L1256.38 120.877L1253.03 117.512L1206.94 163.788L1253.03 210.063ZM1192.98 165.47L1142.42 114.707L1148 109.098L1142.42 103.489L1192.98 52.7261L1243.53 103.489L1237.95 109.098L1243.53 114.707L1192.98 165.47ZM1238.78 103.489L1192.7 57.2135L1146.61 103.489L1149.96 106.855L1192.7 63.9445L1235.43 106.855L1238.78 103.489ZM1152.47 109.098L1192.7 149.484L1232.92 109.098L1192.7 68.7122L1152.47 109.098ZM1235.43 111.342L1192.7 154.252L1149.96 111.342L1146.61 114.707L1192.7 160.983L1238.78 114.707L1235.43 111.342ZM1609.72 612.521V617.008L1568.38 658.516L1609.72 700.024V704.511L1563.63 658.235L1609.72 612.521ZM1609.72 129.011V133.498L1568.38 175.006L1609.72 216.794V221.281L1563.63 175.006L1609.72 129.011ZM1313.36 286.348L1262.81 235.585L1268.39 229.976L1262.81 224.367L1313.36 173.604L1363.92 224.367L1358.33 229.976L1363.92 235.585L1313.36 286.348ZM1359.17 224.367L1313.08 178.091L1267 224.367L1270.35 227.732L1313.08 184.822L1355.82 227.732L1359.17 224.367ZM1272.86 229.976L1313.08 270.362L1353.3 229.976L1313.08 189.59L1272.86 229.976ZM1355.82 232.219L1313.08 275.129L1270.35 232.219L1267 235.585L1313.08 281.86L1359.17 235.585L1355.82 232.219ZM1499.39 341.037L1493.8 346.646L1443.25 295.883L1493.8 245.12L1499.39 250.73L1504.98 245.12L1555.53 295.883L1504.98 346.646L1499.39 341.037ZM1493.8 249.888L1447.72 296.164L1493.8 342.439L1497.15 339.074L1454.42 296.164L1497.15 253.254L1493.8 249.888ZM1459.17 296.164L1499.39 336.55L1539.61 296.164L1499.39 255.778L1459.17 296.164ZM1504.98 249.888L1501.62 253.254L1544.36 296.164L1501.62 339.074L1504.98 342.439L1551.06 296.164L1504.98 249.888ZM952.202 294.481L1002.76 345.244L997.172 350.853L1002.76 356.462L952.202 407.225L901.645 356.462L907.231 350.853L901.645 345.244L952.202 294.481ZM906.114 356.462L952.202 402.738L998.289 356.462L994.938 353.097L952.202 396.007L909.466 353.097L906.114 356.462ZM992.424 350.853L952.202 310.467L911.98 350.853L952.202 391.239L992.424 350.853ZM909.466 348.609L952.202 305.699L994.938 348.609L998.289 345.244L952.202 298.968L906.114 345.244L909.466 348.609ZM1072.59 286.348L1022.03 235.585L1027.62 229.976L1022.03 224.367L1072.59 173.604L1123.15 224.367L1117.56 229.976L1123.15 235.585L1072.59 286.348ZM1118.4 224.367L1072.31 178.091L1026.22 224.367L1029.57 227.732L1072.31 184.822L1115.05 227.732L1118.4 224.367ZM1032.09 229.976L1072.31 270.362L1112.53 229.976L1072.31 189.59L1032.09 229.976ZM1115.05 232.219L1072.31 275.129L1029.57 232.219L1026.22 235.585L1072.31 281.86L1118.4 235.585L1115.05 232.219ZM1554.14 286.348L1503.58 235.585L1509.17 229.976L1503.58 224.367L1554.14 173.604L1604.41 224.367L1598.83 229.976L1604.41 235.585L1553.86 286.348H1554.14ZM1599.94 224.367L1553.86 178.091L1507.77 224.367L1511.12 227.732L1553.86 184.822L1596.59 227.732L1599.94 224.367ZM1513.63 229.976L1553.86 270.362L1594.08 229.976L1553.86 189.59L1513.63 229.976ZM1596.59 232.219L1553.86 275.129L1511.12 232.219L1507.77 235.585L1553.86 281.86L1599.94 235.585L1596.59 232.219ZM891.868 124.523L897.455 130.133L903.041 124.523L953.598 175.286L903.041 226.049L897.455 220.44L891.868 226.049L841.312 175.286L891.868 124.523ZM903.041 221.281L949.129 175.006L903.041 128.73L899.689 132.096L942.425 175.006L899.689 217.916L903.041 221.281ZM937.956 175.286L897.734 134.9L857.512 175.286L897.734 215.672L937.956 175.286ZM895.22 217.916L852.484 175.006L895.22 132.096L891.868 128.73L845.781 175.006L891.868 221.281L895.22 217.916ZM1253.03 698.06L1202.47 647.297L1253.03 596.535L1258.62 602.144L1264.2 596.535L1314.76 647.297L1264.2 698.06L1258.62 692.451L1253.03 698.06ZM1253.03 601.302L1206.94 647.578L1253.03 693.854L1256.38 690.488L1213.65 647.578L1256.38 604.668L1253.03 601.302ZM1218.39 647.297L1258.62 687.683L1298.84 647.297L1258.62 606.911L1218.39 647.297ZM1264.2 693.573L1310.29 647.297L1264.2 601.022L1260.85 604.387L1303.59 647.297L1260.85 690.208L1264.2 693.573ZM1028.18 0H1032.65L1072.59 40.1055L1112.53 0H1117L1072.59 44.5928L1028.18 0ZM1083.76 294.481L1134.32 345.244L1128.73 350.853L1134.32 356.462L1083.76 407.225L1033.2 356.462L1038.79 350.853L1033.2 345.244L1083.76 294.481ZM1037.67 356.462L1083.76 402.738L1129.85 356.462L1126.5 353.097L1083.76 396.007L1041.03 353.097L1037.67 356.462ZM1123.98 350.853L1083.76 310.467L1043.54 350.853L1083.76 391.239L1123.98 350.853ZM1041.03 348.609L1083.76 305.699L1126.5 348.609L1129.85 345.244L1083.76 298.968L1037.67 345.244L1041.03 348.609ZM1159.74 0H1164.21L1204.15 40.1055L1244.09 0H1248.56L1204.15 44.5928L1159.74 0ZM1268.95 0H1273.42L1313.36 40.1055L1353.03 0H1357.49L1313.08 44.5928L1268.95 0ZM1324.54 536.236L1375.09 586.999L1369.51 592.608L1375.09 598.217L1324.54 648.98L1273.98 598.217L1279.56 592.608L1273.98 586.999L1324.54 536.236ZM1278.45 598.217L1324.54 644.493L1370.62 598.217L1367.27 594.852L1324.54 637.762L1281.8 594.852L1278.45 598.217ZM1364.76 592.608L1324.54 552.222L1284.31 592.608L1324.54 632.994L1364.76 592.608ZM1281.8 590.364L1324.54 547.454L1367.27 590.364L1370.62 586.999L1324.54 540.723L1278.45 586.999L1281.8 590.364ZM930.135 0H934.604L963.095 28.6067L991.586 0H996.055L962.816 33.3745L929.577 0H930.135ZM918.963 0H923.432L963.374 40.1055L1003.32 0H1007.79L963.374 44.5928L918.963 0ZM1204.15 415.359L1254.71 466.121L1249.12 471.731L1254.71 477.34L1204.15 528.103L1153.59 477.34L1159.18 471.731L1153.59 466.121L1204.15 415.359ZM1158.06 477.34L1204.15 523.615L1250.24 477.34L1246.88 473.974L1204.15 516.884L1161.41 473.974L1158.06 477.34ZM1244.37 471.731L1204.15 431.345L1163.93 471.731L1204.15 512.117L1244.37 471.731ZM1161.41 469.487L1204.15 426.577L1246.88 469.487L1250.24 466.121L1204.15 419.846L1158.06 466.121L1161.41 469.487ZM1324.54 407.225L1273.98 356.462L1279.56 350.853L1273.98 345.244L1324.54 294.481L1375.09 345.244L1369.51 350.853L1375.09 356.462L1324.54 407.225ZM1370.34 345.244L1324.26 298.968L1278.17 345.244L1281.52 348.609L1324.26 305.699L1366.99 348.609L1370.34 345.244ZM1284.03 350.853L1324.26 391.239L1364.48 350.853L1324.26 310.467L1284.03 350.853ZM1366.99 353.097L1324.26 396.007L1281.52 353.097L1278.17 356.462L1324.26 402.738L1370.34 356.462L1366.99 353.097ZM1023.43 104.891L1017.84 99.2822L1012.26 104.891L961.698 54.1284L1012.26 3.64596L1017.84 9.25512L1023.43 3.64596L1073.99 54.4089L1023.43 105.172V104.891ZM1012.26 8.13329L966.168 54.4089L1012.26 100.684L1015.61 97.319L972.871 54.4089L1015.61 11.4988L1012.26 8.13329ZM977.62 54.4089L1017.84 94.7949L1058.06 54.4089L1017.84 14.0229L977.62 54.4089ZM1020.08 11.4988L1062.81 54.4089L1020.08 97.319L1023.43 100.684L1069.52 54.4089L1023.43 8.13329L1020.08 11.4988ZM1170.91 0H1175.38L1203.87 28.6067L1232.36 0H1236.83L1203.59 33.3745L1170.35 0H1170.91ZM952.202 165.47L901.645 114.707L907.231 109.098L901.645 103.489L952.202 52.7261L1002.76 103.489L997.172 109.098L1002.76 114.707L952.202 165.47ZM998.01 103.489L951.922 57.2135L905.834 103.489L909.186 106.855L951.922 63.9445L994.658 106.855L998.01 103.489ZM911.7 109.098L951.922 149.484L992.144 109.098L951.922 68.7122L911.7 109.098ZM994.658 111.342L951.922 154.252L909.186 111.342L905.834 114.707L951.922 160.983L998.01 114.707L994.658 111.342ZM1204.15 286.348L1153.59 235.585L1159.18 229.976L1153.59 224.367L1204.15 173.604L1254.71 224.367L1249.12 229.976L1254.71 235.585L1204.15 286.348ZM1249.96 224.367L1203.87 178.091L1158.06 224.367L1161.41 227.732L1204.15 184.822L1246.88 227.732L1250.24 224.367H1249.96ZM1163.65 229.976L1203.87 270.362L1244.09 229.976L1203.87 189.59L1163.65 229.976ZM1246.6 232.219L1203.87 275.129L1161.13 232.219L1157.78 235.585L1203.59 281.86L1249.68 235.585L1246.33 232.219H1246.6ZM1039.35 0H1043.82L1072.31 28.6067L1100.8 0H1105.27L1072.03 33.3745L1038.79 0H1039.35ZM1280.12 0H1284.59L1313.08 28.6067L1341.85 0H1346.32L1313.08 33.3745L1280.12 0Z" fill="#E8B9AF" fill-opacity="0.1"/>
</svg>
